<mxfile host="app.diagrams.net" modified="2023-04-04T13:44:38.030Z" agent="Mozilla/5.0 (Windows NT 10.0; Win64; x64; rv:109.0) Gecko/20100101 Firefox/111.0" etag="VWM6b9zQeJdDtIoIzyJn" version="21.1.2" type="github">
  <diagram name="Page-1" id="h73wxa4yJ-ZHjcK9tjOk">
    <mxGraphModel dx="801" dy="292" grid="1" gridSize="10" guides="1" tooltips="1" connect="1" arrows="1" fold="1" page="1" pageScale="1" pageWidth="850" pageHeight="1100" math="0" shadow="0">
      <root>
        <mxCell id="0" />
        <mxCell id="1" parent="0" />
        <UserObject label="" tags="Background" id="rB1mxTAFyo9l-1NCUvBi-1">
          <mxCell style="vsdxID=21;fillColor=none;gradientColor=none;strokeColor=none;shadow=1;points=[[0,0.94,0],[0,0.87,0],[0,0.81,0],[0,0.75,0],[0,0.69,0],[0,0.62,0],[0,0.56,0],[0,0.5,0],[0,0.44,0],[0,0.37,0],[0,0.31,0],[0,0.25,0],[0,0.19,0],[0,0.12,0],[0,0.06,0],[1,0.94,0],[1,0.87,0],[1,0.81,0],[1,0.75,0],[1,0.69,0],[1,0.62,0],[1,0.56,0],[1,0.5,0],[1,0.44,0],[1,0.37,0],[1,0.31,0],[1,0.25,0],[1,0.19,0],[1,0.12,0],[1,0.06,0]];labelBackgroundColor=none;rounded=0;html=1;whiteSpace=wrap;" vertex="1" parent="1">
            <mxGeometry x="30" y="27" width="2476" height="1036" as="geometry" />
          </mxCell>
        </UserObject>
        <mxCell id="rB1mxTAFyo9l-1NCUvBi-2" style="vsdxID=22;fillColor=#f2f2f2;gradientColor=none;fillOpacity=0;shape=stencil(nZBLDoAgDERP0z3SIyjew0SURgSD+Lu9kMZoXLhwN9O+tukAlrNpJg1SzDH4QW/URgNYgZTkjA4UkwJUgGXng+6DX1zLfmoymdXo17xh5zmRJ6Q42BWCfc2oJfdAr+Yv+AP9Cb7OJ3H/2JG1HNGz/84klThPVCc=);strokeColor=#92b3a9;shadow=1;points=[[0.06,1,0],[0.13,1,0],[0.19,1,0],[0.25,1,0],[0.31,1,0],[0.38,1,0],[0.44,1,0],[0.5,1,0],[0.56,1,0],[0.63,1,0],[0.69,1,0],[0.75,1,0],[0.81,1,0],[0.88,1,0],[0.94,1,0],[0.06,0,0],[0.13,0,0],[0.19,0,0],[0.25,0,0],[0.31,0,0],[0.38,0,0],[0.44,0,0],[0.5,0,0],[0.56,0,0],[0.63,0,0],[0.69,0,0],[0.75,0,0],[0.81,0,0],[0.88,0,0],[0.94,0,0]];labelBackgroundColor=none;rounded=0;html=1;whiteSpace=wrap;" vertex="1" parent="rB1mxTAFyo9l-1NCUvBi-1">
          <mxGeometry width="2476" height="1036" as="geometry" />
        </mxCell>
        <mxCell id="rB1mxTAFyo9l-1NCUvBi-3" value="&lt;div style=&quot;font-size: 1px&quot;&gt;&lt;p style=&quot;text-align:center;margin-left:0;margin-right:0;margin-top:0px;margin-bottom:0px;text-indent:0;vertical-align:middle;direction:ltr;&quot;&gt;&lt;font style=&quot;font-size:22.58px;font-family:Calibri;color:#000000;direction:ltr;letter-spacing:0px;line-height:120%;opacity:1&quot;&gt;IIW BEK Window II&lt;br/&gt;&lt;/font&gt;&lt;/p&gt;&lt;/div&gt;" style="verticalAlign=middle;align=center;overflow=width;vsdxID=23;fillColor=#f2f2f2;gradientColor=none;shape=stencil(nZBLDoAgDERP0z3SIyjew0SURgSD+Lu9kMZoXLhwN9O+tukAlrNpJg1SzDH4QW/URgNYgZTkjA4UkwJUgGXng+6DX1zLfmoymdXo17xh5zmRJ6Q42BWCfc2oJfdAr+Yv+AP9Cb7OJ3H/2JG1HNGz/84klThPVCc=);strokeColor=#92b3a9;shadow=1;points=[[0.06,1,0],[0.13,1,0],[0.19,1,0],[0.25,1,0],[0.31,1,0],[0.38,1,0],[0.44,1,0],[0.5,1,0],[0.56,1,0],[0.63,1,0],[0.69,1,0],[0.75,1,0],[0.81,1,0],[0.88,1,0],[0.94,1,0],[0.06,0,0],[0.13,0,0],[0.19,0,0],[0.25,0,0],[0.31,0,0],[0.38,0,0],[0.44,0,0],[0.5,0,0],[0.56,0,0],[0.63,0,0],[0.69,0,0],[0.75,0,0],[0.81,0,0],[0.88,0,0],[0.94,0,0]];labelBackgroundColor=none;rounded=0;html=1;whiteSpace=wrap;" vertex="1" parent="rB1mxTAFyo9l-1NCUvBi-1">
          <mxGeometry width="2476" height="50" as="geometry" />
        </mxCell>
        <UserObject label="" tags="Background" id="rB1mxTAFyo9l-1NCUvBi-4">
          <mxCell style="vsdxID=24;fillColor=#58a28b;gradientColor=none;fillOpacity=0;shape=stencil(nZBLDoAgDERP0z3SIyjew0SURgSD+Lu9kMZoXLhwN9N5bdMClrNpJg1SzDH4QW/URgNYgZTkjA4UkwJUgGXng+6DX1zLfmoymdXo1zxh5z6RO6Q42BWCfc2oJfdAr/AX/IH+BF/rk7hv7MjaZ/L+RirxJ1Gd);strokeColor=#92b3a9;strokeWidth=2;shadow=1;points=[];labelBackgroundColor=none;rounded=0;html=1;whiteSpace=wrap;" vertex="1" parent="1">
            <mxGeometry x="55" y="78" width="2451" height="985" as="geometry" />
          </mxCell>
        </UserObject>
        <UserObject label="" tags="Background" id="rB1mxTAFyo9l-1NCUvBi-5">
          <mxCell style="vsdxID=18;fillColor=none;gradientColor=none;strokeColor=none;strokeWidth=2;shadow=1;points=[];labelBackgroundColor=none;rounded=0;html=1;whiteSpace=wrap;" vertex="1" parent="1">
            <mxGeometry x="55" y="78" width="236" height="985" as="geometry" />
          </mxCell>
        </UserObject>
        <mxCell id="rB1mxTAFyo9l-1NCUvBi-6" style="vsdxID=19;fillColor=#f2f2f2;gradientColor=none;fillOpacity=0;shape=stencil(nZBLDoAgDERP0z3SIyjew0SURgSD+Lu9kMZoXLhwN9O+tukAlrNpJg1SzDH4QW/URgNYgZTkjA4UkwJUgGXng+6DX1zLfmoymdXo17xh5zmRJ6Q42BWCfc2oJfdAr+Yv+AP9Cb7OJ3H/2JG1HNGz/84klThPVCc=);strokeColor=#92b3a9;strokeWidth=2;shadow=1;points=[];labelBackgroundColor=none;rounded=0;html=1;whiteSpace=wrap;" vertex="1" parent="rB1mxTAFyo9l-1NCUvBi-5">
          <mxGeometry width="236" height="985" as="geometry" />
        </mxCell>
        <mxCell id="rB1mxTAFyo9l-1NCUvBi-7" value="&lt;div style=&quot;font-size: 1px&quot;&gt;&lt;font style=&quot;font-size:16.93px;font-family:Calibri;color:#000000;direction:ltr;letter-spacing:0px;line-height:120%;opacity:1&quot;&gt;The AECF&lt;br/&gt;&lt;/font&gt;&lt;/div&gt;" style="verticalAlign=middle;align=center;overflow=width;vsdxID=20;fillColor=#f2f2f2;gradientColor=none;shape=stencil(nZBLDoAgDERP0z3SIyjew0SURgSD+Lu9kMZoXLhwN9O+tukAlrNpJg1SzDH4QW/URgNYgZTkjA4UkwJUgGXng+6DX1zLfmoymdXo17xh5zmRJ6Q42BWCfc2oJfdAr+Yv+AP9Cb7OJ3H/2JG1HNGz/84klThPVCc=);strokeColor=#92b3a9;strokeWidth=2;shadow=1;points=[];labelBackgroundColor=none;rounded=0;html=1;whiteSpace=wrap;" vertex="1" parent="rB1mxTAFyo9l-1NCUvBi-5">
          <mxGeometry width="236" height="72" as="geometry" />
        </mxCell>
        <UserObject label="" tags="Background" id="rB1mxTAFyo9l-1NCUvBi-8">
          <mxCell style="vsdxID=29;fillColor=none;gradientColor=none;strokeColor=none;strokeWidth=2;shadow=1;points=[];labelBackgroundColor=none;rounded=0;html=1;whiteSpace=wrap;" vertex="1" parent="1">
            <mxGeometry x="292" y="78" width="223" height="985" as="geometry" />
          </mxCell>
        </UserObject>
        <mxCell id="rB1mxTAFyo9l-1NCUvBi-9" style="vsdxID=30;fillColor=#f2f2f2;gradientColor=none;fillOpacity=0;shape=stencil(nZBLDoAgDERP0z3SIyjew0SURgSD+Lu9kMZoXLhwN9O+tukAlrNpJg1SzDH4QW/URgNYgZTkjA4UkwJUgGXng+6DX1zLfmoymdXo17xh5zmRJ6Q42BWCfc2oJfdAr+Yv+AP9Cb7OJ3H/2JG1HNGz/84klThPVCc=);strokeColor=#92b3a9;strokeWidth=2;shadow=1;points=[];labelBackgroundColor=none;rounded=0;html=1;whiteSpace=wrap;" vertex="1" parent="rB1mxTAFyo9l-1NCUvBi-8">
          <mxGeometry width="223" height="985" as="geometry" />
        </mxCell>
        <mxCell id="rB1mxTAFyo9l-1NCUvBi-10" value="&lt;div style=&quot;font-size: 1px&quot;&gt;&lt;font style=&quot;font-size:16.93px;font-family:Calibri;color:#000000;direction:ltr;letter-spacing:0px;line-height:120%;opacity:1&quot;&gt;Business Incubation Facility (BIF) set up&lt;br/&gt;&lt;/font&gt;&lt;/div&gt;" style="verticalAlign=middle;align=center;overflow=width;vsdxID=31;fillColor=#f2f2f2;gradientColor=none;shape=stencil(nZBLDoAgDERP0z3SIyjew0SURgSD+Lu9kMZoXLhwN9O+tukAlrNpJg1SzDH4QW/URgNYgZTkjA4UkwJUgGXng+6DX1zLfmoymdXo17xh5zmRJ6Q42BWCfc2oJfdAr+Yv+AP9Cb7OJ3H/2JG1HNGz/84klThPVCc=);strokeColor=#92b3a9;strokeWidth=2;shadow=1;points=[];labelBackgroundColor=none;rounded=0;html=1;whiteSpace=wrap;" vertex="1" parent="rB1mxTAFyo9l-1NCUvBi-8">
          <mxGeometry width="223" height="72" as="geometry" />
        </mxCell>
        <UserObject label="" tags="Background" id="rB1mxTAFyo9l-1NCUvBi-11">
          <mxCell style="vsdxID=32;fillColor=none;gradientColor=none;strokeColor=none;strokeWidth=2;shadow=1;points=[];labelBackgroundColor=none;rounded=0;html=1;whiteSpace=wrap;" vertex="1" parent="1">
            <mxGeometry x="515" y="78" width="210" height="985" as="geometry" />
          </mxCell>
        </UserObject>
        <mxCell id="rB1mxTAFyo9l-1NCUvBi-12" style="vsdxID=33;fillColor=#f2f2f2;gradientColor=none;fillOpacity=0;shape=stencil(nZBLDoAgDERP0z3SIyjew0SURgSD+Lu9kMZoXLhwN9O+tukAlrNpJg1SzDH4QW/URgNYgZTkjA4UkwJUgGXng+6DX1zLfmoymdXo17xh5zmRJ6Q42BWCfc2oJfdAr+Yv+AP9Cb7OJ3H/2JG1HNGz/84klThPVCc=);strokeColor=#92b3a9;strokeWidth=2;shadow=1;points=[];labelBackgroundColor=none;rounded=0;html=1;whiteSpace=wrap;" vertex="1" parent="rB1mxTAFyo9l-1NCUvBi-11">
          <mxGeometry width="210" height="985" as="geometry" />
        </mxCell>
        <mxCell id="rB1mxTAFyo9l-1NCUvBi-13" value="&lt;div style=&quot;font-size: 1px&quot;&gt;&lt;font style=&quot;font-size:16.93px;font-family:Calibri;color:#000000;direction:ltr;letter-spacing:0px;line-height:120%;opacity:1&quot;&gt;Grant Administrator&lt;br/&gt;&lt;/font&gt;&lt;/div&gt;" style="verticalAlign=middle;align=center;overflow=width;vsdxID=34;fillColor=#f2f2f2;gradientColor=none;shape=stencil(nZBLDoAgDERP0z3SIyjew0SURgSD+Lu9kMZoXLhwN9O+tukAlrNpJg1SzDH4QW/URgNYgZTkjA4UkwJUgGXng+6DX1zLfmoymdXo17xh5zmRJ6Q42BWCfc2oJfdAr+Yv+AP9Cb7OJ3H/2JG1HNGz/84klThPVCc=);strokeColor=#92b3a9;strokeWidth=2;shadow=1;points=[];labelBackgroundColor=none;rounded=0;html=1;whiteSpace=wrap;" vertex="1" parent="rB1mxTAFyo9l-1NCUvBi-11">
          <mxGeometry width="210" height="72" as="geometry" />
        </mxCell>
        <UserObject label="" tags="Background" id="rB1mxTAFyo9l-1NCUvBi-14">
          <mxCell style="vsdxID=35;fillColor=none;gradientColor=none;strokeColor=none;strokeWidth=2;shadow=1;points=[];labelBackgroundColor=none;rounded=0;html=1;whiteSpace=wrap;" vertex="1" parent="1">
            <mxGeometry x="937" y="78" width="210" height="985" as="geometry" />
          </mxCell>
        </UserObject>
        <mxCell id="rB1mxTAFyo9l-1NCUvBi-15" style="vsdxID=36;fillColor=#f2f2f2;gradientColor=none;fillOpacity=0;shape=stencil(nZBLDoAgDERP0z3SIyjew0SURgSD+Lu9kMZoXLhwN9O+tukAlrNpJg1SzDH4QW/URgNYgZTkjA4UkwJUgGXng+6DX1zLfmoymdXo17xh5zmRJ6Q42BWCfc2oJfdAr+Yv+AP9Cb7OJ3H/2JG1HNGz/84klThPVCc=);strokeColor=#92b3a9;strokeWidth=2;shadow=1;points=[];labelBackgroundColor=none;rounded=0;html=1;whiteSpace=wrap;" vertex="1" parent="rB1mxTAFyo9l-1NCUvBi-14">
          <mxGeometry width="210" height="985" as="geometry" />
        </mxCell>
        <mxCell id="rB1mxTAFyo9l-1NCUvBi-16" value="&lt;div style=&quot;font-size: 1px&quot;&gt;&lt;font style=&quot;font-size:16.93px;font-family:Calibri;color:#000000;direction:ltr;letter-spacing:0px;line-height:120%;opacity:1&quot;&gt;Coaches&lt;br/&gt;&lt;/font&gt;&lt;/div&gt;" style="verticalAlign=middle;align=center;overflow=width;vsdxID=37;fillColor=#f2f2f2;gradientColor=none;shape=stencil(nZBLDoAgDERP0z3SIyjew0SURgSD+Lu9kMZoXLhwN9O+tukAlrNpJg1SzDH4QW/URgNYgZTkjA4UkwJUgGXng+6DX1zLfmoymdXo17xh5zmRJ6Q42BWCfc2oJfdAr+Yv+AP9Cb7OJ3H/2JG1HNGz/84klThPVCc=);strokeColor=#92b3a9;strokeWidth=2;shadow=1;points=[];labelBackgroundColor=none;rounded=0;html=1;whiteSpace=wrap;" vertex="1" parent="rB1mxTAFyo9l-1NCUvBi-14">
          <mxGeometry width="210" height="72" as="geometry" />
        </mxCell>
        <UserObject label="" tags="Background" id="rB1mxTAFyo9l-1NCUvBi-17">
          <mxCell style="vsdxID=68;fillColor=none;gradientColor=none;strokeColor=none;strokeWidth=2;shadow=1;points=[];labelBackgroundColor=none;rounded=0;html=1;whiteSpace=wrap;" vertex="1" parent="1">
            <mxGeometry x="1148" y="78" width="188" height="985" as="geometry" />
          </mxCell>
        </UserObject>
        <mxCell id="rB1mxTAFyo9l-1NCUvBi-18" style="vsdxID=69;fillColor=#f2f2f2;gradientColor=none;fillOpacity=0;shape=stencil(nZBLDoAgDERP0z3SIyjew0SURgSD+Lu9kMZoXLhwN9O+tukAlrNpJg1SzDH4QW/URgNYgZTkjA4UkwJUgGXng+6DX1zLfmoymdXo17xh5zmRJ6Q42BWCfc2oJfdAr+Yv+AP9Cb7OJ3H/2JG1HNGz/84klThPVCc=);strokeColor=#92b3a9;strokeWidth=2;shadow=1;points=[];labelBackgroundColor=none;rounded=0;html=1;whiteSpace=wrap;" vertex="1" parent="rB1mxTAFyo9l-1NCUvBi-17">
          <mxGeometry width="188" height="985" as="geometry" />
        </mxCell>
        <mxCell id="rB1mxTAFyo9l-1NCUvBi-19" value="&lt;div style=&quot;font-size: 1px&quot;&gt;&lt;font style=&quot;font-size:16.93px;font-family:Calibri;color:#000000;direction:ltr;letter-spacing:0px;line-height:120%;opacity:1&quot;&gt;Business Incubation Facility (BIF)&lt;br/&gt;&lt;/font&gt;&lt;/div&gt;" style="verticalAlign=middle;align=center;overflow=width;vsdxID=70;fillColor=#f2f2f2;gradientColor=none;shape=stencil(nZBLDoAgDERP0z3SIyjew0SURgSD+Lu9kMZoXLhwN9O+tukAlrNpJg1SzDH4QW/URgNYgZTkjA4UkwJUgGXng+6DX1zLfmoymdXo17xh5zmRJ6Q42BWCfc2oJfdAr+Yv+AP9Cb7OJ3H/2JG1HNGz/84klThPVCc=);strokeColor=#92b3a9;strokeWidth=2;shadow=1;points=[];labelBackgroundColor=none;rounded=0;html=1;whiteSpace=wrap;" vertex="1" parent="rB1mxTAFyo9l-1NCUvBi-17">
          <mxGeometry width="188" height="72" as="geometry" />
        </mxCell>
        <UserObject label="" tags="Background" id="rB1mxTAFyo9l-1NCUvBi-20">
          <mxCell style="vsdxID=82;fillColor=none;gradientColor=none;strokeColor=none;strokeWidth=2;shadow=1;points=[];labelBackgroundColor=none;rounded=0;html=1;whiteSpace=wrap;" vertex="1" parent="1">
            <mxGeometry x="1336" y="78" width="171" height="985" as="geometry" />
          </mxCell>
        </UserObject>
        <mxCell id="rB1mxTAFyo9l-1NCUvBi-21" style="vsdxID=83;fillColor=#f2f2f2;gradientColor=none;fillOpacity=0;shape=stencil(nZBLDoAgDERP0z3SIyjew0SURgSD+Lu9kMZoXLhwN9O+tukAlrNpJg1SzDH4QW/URgNYgZTkjA4UkwJUgGXng+6DX1zLfmoymdXo17xh5zmRJ6Q42BWCfc2oJfdAr+Yv+AP9Cb7OJ3H/2JG1HNGz/84klThPVCc=);strokeColor=#005f80;strokeWidth=2;shadow=1;points=[];labelBackgroundColor=none;rounded=0;html=1;whiteSpace=wrap;" vertex="1" parent="rB1mxTAFyo9l-1NCUvBi-20">
          <mxGeometry width="171" height="985" as="geometry" />
        </mxCell>
        <mxCell id="rB1mxTAFyo9l-1NCUvBi-22" value="&lt;div style=&quot;font-size: 1px&quot;&gt;&lt;font style=&quot;font-size:16.93px;font-family:Calibri;color:#000000;direction:ltr;letter-spacing:0px;line-height:120%;opacity:1&quot;&gt;Month 1 - 2&lt;br/&gt;&lt;/font&gt;&lt;/div&gt;" style="verticalAlign=middle;align=center;overflow=width;vsdxID=84;fillColor=#f2f2f2;gradientColor=none;shape=stencil(nZBLDoAgDERP0z3SIyjew0SURgSD+Lu9kMZoXLhwN9O+tukAlrNpJg1SzDH4QW/URgNYgZTkjA4UkwJUgGXng+6DX1zLfmoymdXo17xh5zmRJ6Q42BWCfc2oJfdAr+Yv+AP9Cb7OJ3H/2JG1HNGz/84klThPVCc=);strokeColor=#005f80;strokeWidth=2;shadow=1;points=[];labelBackgroundColor=none;rounded=0;html=1;whiteSpace=wrap;" vertex="1" parent="rB1mxTAFyo9l-1NCUvBi-20">
          <mxGeometry width="171" height="72" as="geometry" />
        </mxCell>
        <UserObject label="" tags="Background" id="rB1mxTAFyo9l-1NCUvBi-23">
          <mxCell style="vsdxID=85;fillColor=none;gradientColor=none;strokeColor=none;strokeWidth=2;shadow=1;points=[];labelBackgroundColor=none;rounded=0;html=1;whiteSpace=wrap;" vertex="1" parent="1">
            <mxGeometry x="1508" y="78" width="171" height="985" as="geometry" />
          </mxCell>
        </UserObject>
        <mxCell id="rB1mxTAFyo9l-1NCUvBi-24" style="vsdxID=86;fillColor=#f2f2f2;gradientColor=none;fillOpacity=0;shape=stencil(nZBLDoAgDERP0z3SIyjew0SURgSD+Lu9kMZoXLhwN9O+tukAlrNpJg1SzDH4QW/URgNYgZTkjA4UkwJUgGXng+6DX1zLfmoymdXo17xh5zmRJ6Q42BWCfc2oJfdAr+Yv+AP9Cb7OJ3H/2JG1HNGz/84klThPVCc=);strokeColor=#f7b32b;strokeWidth=2;shadow=1;points=[];labelBackgroundColor=none;rounded=0;html=1;whiteSpace=wrap;" vertex="1" parent="rB1mxTAFyo9l-1NCUvBi-23">
          <mxGeometry width="171" height="985" as="geometry" />
        </mxCell>
        <mxCell id="rB1mxTAFyo9l-1NCUvBi-25" value="&lt;div style=&quot;font-size: 1px&quot;&gt;&lt;font style=&quot;font-size:16.93px;font-family:Calibri;color:#000000;direction:ltr;letter-spacing:0px;line-height:120%;opacity:1&quot;&gt;Month 3 - 4&lt;br/&gt;&lt;/font&gt;&lt;/div&gt;" style="verticalAlign=middle;align=center;overflow=width;vsdxID=87;fillColor=#f2f2f2;gradientColor=none;shape=stencil(nZBLDoAgDERP0z3SIyjew0SURgSD+Lu9kMZoXLhwN9O+tukAlrNpJg1SzDH4QW/URgNYgZTkjA4UkwJUgGXng+6DX1zLfmoymdXo17xh5zmRJ6Q42BWCfc2oJfdAr+Yv+AP9Cb7OJ3H/2JG1HNGz/84klThPVCc=);strokeColor=#f7b32b;strokeWidth=2;shadow=1;points=[];labelBackgroundColor=none;rounded=0;html=1;whiteSpace=wrap;" vertex="1" parent="rB1mxTAFyo9l-1NCUvBi-23">
          <mxGeometry width="171" height="72" as="geometry" />
        </mxCell>
        <UserObject label="" tags="Background" id="rB1mxTAFyo9l-1NCUvBi-26">
          <mxCell style="vsdxID=88;fillColor=none;gradientColor=none;strokeColor=none;strokeWidth=2;shadow=1;points=[];labelBackgroundColor=none;rounded=0;html=1;whiteSpace=wrap;" vertex="1" parent="1">
            <mxGeometry x="1679" y="78" width="171" height="985" as="geometry" />
          </mxCell>
        </UserObject>
        <mxCell id="rB1mxTAFyo9l-1NCUvBi-27" style="vsdxID=89;fillColor=#f2f2f2;gradientColor=none;fillOpacity=0;shape=stencil(nZBLDoAgDERP0z3SIyjew0SURgSD+Lu9kMZoXLhwN9O+tukAlrNpJg1SzDH4QW/URgNYgZTkjA4UkwJUgGXng+6DX1zLfmoymdXo17xh5zmRJ6Q42BWCfc2oJfdAr+Yv+AP9Cb7OJ3H/2JG1HNGz/84klThPVCc=);strokeColor=#196283;strokeWidth=2;shadow=1;points=[];labelBackgroundColor=none;rounded=0;html=1;whiteSpace=wrap;" vertex="1" parent="rB1mxTAFyo9l-1NCUvBi-26">
          <mxGeometry width="171" height="985" as="geometry" />
        </mxCell>
        <mxCell id="rB1mxTAFyo9l-1NCUvBi-28" value="&lt;div style=&quot;font-size: 1px&quot;&gt;&lt;font style=&quot;font-size:16.93px;font-family:Calibri;color:#000000;direction:ltr;letter-spacing:0px;line-height:120%;opacity:1&quot;&gt;Month 5&lt;br/&gt;&lt;/font&gt;&lt;/div&gt;" style="verticalAlign=middle;align=center;overflow=width;vsdxID=90;fillColor=#f2f2f2;gradientColor=none;shape=stencil(nZBLDoAgDERP0z3SIyjew0SURgSD+Lu9kMZoXLhwN9O+tukAlrNpJg1SzDH4QW/URgNYgZTkjA4UkwJUgGXng+6DX1zLfmoymdXo17xh5zmRJ6Q42BWCfc2oJfdAr+Yv+AP9Cb7OJ3H/2JG1HNGz/84klThPVCc=);strokeColor=#196283;strokeWidth=2;shadow=1;points=[];labelBackgroundColor=none;rounded=0;html=1;whiteSpace=wrap;" vertex="1" parent="rB1mxTAFyo9l-1NCUvBi-26">
          <mxGeometry width="171" height="72" as="geometry" />
        </mxCell>
        <UserObject label="" tags="Background" id="rB1mxTAFyo9l-1NCUvBi-29">
          <mxCell style="vsdxID=95;fillColor=none;gradientColor=none;strokeColor=none;strokeWidth=2;shadow=1;points=[];labelBackgroundColor=none;rounded=0;html=1;whiteSpace=wrap;" vertex="1" parent="1">
            <mxGeometry x="1851" y="78" width="336" height="985" as="geometry" />
          </mxCell>
        </UserObject>
        <mxCell id="rB1mxTAFyo9l-1NCUvBi-30" style="vsdxID=96;fillColor=#f2f2f2;gradientColor=none;fillOpacity=0;shape=stencil(nZBLDoAgDERP0z3SIyjew0SURgSD+Lu9kMZoXLhwN9O+tukAlrNpJg1SzDH4QW/URgNYgZTkjA4UkwJUgGXng+6DX1zLfmoymdXo17xh5zmRJ6Q42BWCfc2oJfdAr+Yv+AP9Cb7OJ3H/2JG1HNGz/84klThPVCc=);strokeColor=#f7b32b;strokeWidth=2;shadow=1;points=[];labelBackgroundColor=none;rounded=0;html=1;whiteSpace=wrap;" vertex="1" parent="rB1mxTAFyo9l-1NCUvBi-29">
          <mxGeometry width="336" height="985" as="geometry" />
        </mxCell>
        <mxCell id="rB1mxTAFyo9l-1NCUvBi-31" value="&lt;div style=&quot;font-size: 1px&quot;&gt;&lt;font style=&quot;font-size:16.93px;font-family:Calibri;color:#000000;direction:ltr;letter-spacing:0px;line-height:120%;opacity:1&quot;&gt;Month 6&lt;br/&gt;&lt;/font&gt;&lt;/div&gt;" style="verticalAlign=middle;align=center;overflow=width;vsdxID=97;fillColor=#f2f2f2;gradientColor=none;shape=stencil(nZBLDoAgDERP0z3SIyjew0SURgSD+Lu9kMZoXLhwN9O+tukAlrNpJg1SzDH4QW/URgNYgZTkjA4UkwJUgGXng+6DX1zLfmoymdXo17xh5zmRJ6Q42BWCfc2oJfdAr+Yv+AP9Cb7OJ3H/2JG1HNGz/84klThPVCc=);strokeColor=#f7b32b;strokeWidth=2;shadow=1;points=[];labelBackgroundColor=none;rounded=0;html=1;whiteSpace=wrap;" vertex="1" parent="rB1mxTAFyo9l-1NCUvBi-29">
          <mxGeometry width="336" height="72" as="geometry" />
        </mxCell>
        <UserObject label="" tags="Background" id="rB1mxTAFyo9l-1NCUvBi-32">
          <mxCell style="vsdxID=1008;fillColor=none;gradientColor=none;strokeColor=none;strokeWidth=2;shadow=1;points=[];labelBackgroundColor=none;rounded=0;html=1;whiteSpace=wrap;" vertex="1" parent="1">
            <mxGeometry x="2187" y="78" width="160" height="985" as="geometry" />
          </mxCell>
        </UserObject>
        <mxCell id="rB1mxTAFyo9l-1NCUvBi-33" style="vsdxID=1009;fillColor=#f2f2f2;gradientColor=none;fillOpacity=0;shape=stencil(nZBLDoAgDERP0z3SIyjew0SURgSD+Lu9kMZoXLhwN9O+tukAlrNpJg1SzDH4QW/URgNYgZTkjA4UkwJUgGXng+6DX1zLfmoymdXo17xh5zmRJ6Q42BWCfc2oJfdAr+Yv+AP9Cb7OJ3H/2JG1HNGz/84klThPVCc=);strokeColor=#196283;strokeWidth=2;shadow=1;points=[];labelBackgroundColor=none;rounded=0;html=1;whiteSpace=wrap;" vertex="1" parent="rB1mxTAFyo9l-1NCUvBi-32">
          <mxGeometry width="160" height="985" as="geometry" />
        </mxCell>
        <mxCell id="rB1mxTAFyo9l-1NCUvBi-34" value="&lt;div style=&quot;font-size: 1px&quot;&gt;&lt;font style=&quot;font-size:16.93px;font-family:Calibri;color:#000000;direction:ltr;letter-spacing:0px;line-height:120%;opacity:1&quot;&gt;Monitoring&lt;br/&gt;&lt;/font&gt;&lt;/div&gt;" style="verticalAlign=middle;align=center;overflow=width;vsdxID=1010;fillColor=#f2f2f2;gradientColor=none;shape=stencil(nZBLDoAgDERP0z3SIyjew0SURgSD+Lu9kMZoXLhwN9O+tukAlrNpJg1SzDH4QW/URgNYgZTkjA4UkwJUgGXng+6DX1zLfmoymdXo17xh5zmRJ6Q42BWCfc2oJfdAr+Yv+AP9Cb7OJ3H/2JG1HNGz/84klThPVCc=);strokeColor=#196283;strokeWidth=2;shadow=1;points=[];labelBackgroundColor=none;rounded=0;html=1;whiteSpace=wrap;" vertex="1" parent="rB1mxTAFyo9l-1NCUvBi-32">
          <mxGeometry width="160" height="72" as="geometry" />
        </mxCell>
        <UserObject label="" tags="Background" id="rB1mxTAFyo9l-1NCUvBi-35">
          <mxCell style="vsdxID=1014;fillColor=none;gradientColor=none;strokeColor=none;strokeWidth=2;shadow=1;points=[];labelBackgroundColor=none;rounded=0;html=1;whiteSpace=wrap;" vertex="1" parent="1">
            <mxGeometry x="726" y="78" width="210" height="985" as="geometry" />
          </mxCell>
        </UserObject>
        <mxCell id="rB1mxTAFyo9l-1NCUvBi-36" style="vsdxID=1015;fillColor=#f2f2f2;gradientColor=none;fillOpacity=0;shape=stencil(nZBLDoAgDERP0z3SIyjew0SURgSD+Lu9kMZoXLhwN9O+tukAlrNpJg1SzDH4QW/URgNYgZTkjA4UkwJUgGXng+6DX1zLfmoymdXo17xh5zmRJ6Q42BWCfc2oJfdAr+Yv+AP9Cb7OJ3H/2JG1HNGz/84klThPVCc=);strokeColor=#92b3a9;strokeWidth=2;shadow=1;points=[];labelBackgroundColor=none;rounded=0;html=1;whiteSpace=wrap;" vertex="1" parent="rB1mxTAFyo9l-1NCUvBi-35">
          <mxGeometry width="210" height="985" as="geometry" />
        </mxCell>
        <mxCell id="rB1mxTAFyo9l-1NCUvBi-37" value="&lt;div style=&quot;font-size: 1px&quot;&gt;&lt;font style=&quot;font-size:16.93px;font-family:Calibri;color:#000000;direction:ltr;letter-spacing:0px;line-height:120%;opacity:1&quot;&gt;Technical Assistance&lt;br/&gt;&lt;/font&gt;&lt;/div&gt;" style="verticalAlign=middle;align=center;overflow=width;vsdxID=1016;fillColor=#f2f2f2;gradientColor=none;shape=stencil(nZBLDoAgDERP0z3SIyjew0SURgSD+Lu9kMZoXLhwN9O+tukAlrNpJg1SzDH4QW/URgNYgZTkjA4UkwJUgGXng+6DX1zLfmoymdXo17xh5zmRJ6Q42BWCfc2oJfdAr+Yv+AP9Cb7OJ3H/2JG1HNGz/84klThPVCc=);strokeColor=#92b3a9;strokeWidth=2;shadow=1;points=[];labelBackgroundColor=none;rounded=0;html=1;whiteSpace=wrap;" vertex="1" parent="rB1mxTAFyo9l-1NCUvBi-35">
          <mxGeometry width="210" height="72" as="geometry" />
        </mxCell>
        <UserObject label="" tags="Background" id="rB1mxTAFyo9l-1NCUvBi-38">
          <mxCell style="vsdxID=1031;fillColor=none;gradientColor=none;strokeColor=none;strokeWidth=2;shadow=1;points=[];labelBackgroundColor=none;rounded=0;html=1;whiteSpace=wrap;" vertex="1" parent="1">
            <mxGeometry x="2348" y="78" width="158" height="985" as="geometry" />
          </mxCell>
        </UserObject>
        <mxCell id="rB1mxTAFyo9l-1NCUvBi-39" style="vsdxID=1032;fillColor=#f2f2f2;gradientColor=none;fillOpacity=0;shape=stencil(nZBLDoAgDERP0z3SIyjew0SURgSD+Lu9kMZoXLhwN9O+tukAlrNpJg1SzDH4QW/URgNYgZTkjA4UkwJUgGXng+6DX1zLfmoymdXo17xh5zmRJ6Q42BWCfc2oJfdAr+Yv+AP9Cb7OJ3H/2JG1HNGz/84klThPVCc=);strokeColor=#92b3a9;strokeWidth=2;shadow=1;points=[];labelBackgroundColor=none;rounded=0;html=1;whiteSpace=wrap;" vertex="1" parent="rB1mxTAFyo9l-1NCUvBi-38">
          <mxGeometry width="158" height="985" as="geometry" />
        </mxCell>
        <mxCell id="rB1mxTAFyo9l-1NCUvBi-40" value="&lt;div style=&quot;font-size: 1px&quot;&gt;&lt;font style=&quot;font-size:15.52px;font-family:Calibri;color:#000000;direction:ltr;letter-spacing:0px;line-height:120%;opacity:1&quot;&gt;Contract and Disputes Resolution&lt;/font&gt;&lt;font style=&quot;font-size:16.93px;font-family:Themed;color:#000000;direction:ltr;letter-spacing:0px;line-height:120%;opacity:1&quot;&gt;&lt;br/&gt;&lt;/font&gt;&lt;/div&gt;" style="verticalAlign=middle;align=center;overflow=width;vsdxID=1033;fillColor=#f2f2f2;gradientColor=none;shape=stencil(nZBLDoAgDERP0z3SIyjew0SURgSD+Lu9kMZoXLhwN9O+tukAlrNpJg1SzDH4QW/URgNYgZTkjA4UkwJUgGXng+6DX1zLfmoymdXo17xh5zmRJ6Q42BWCfc2oJfdAr+Yv+AP9Cb7OJ3H/2JG1HNGz/84klThPVCc=);strokeColor=#92b3a9;strokeWidth=2;shadow=1;points=[];labelBackgroundColor=none;rounded=0;html=1;whiteSpace=wrap;" vertex="1" parent="rB1mxTAFyo9l-1NCUvBi-38">
          <mxGeometry width="158" height="72" as="geometry" />
        </mxCell>
        <UserObject label="" tags="Background" id="rB1mxTAFyo9l-1NCUvBi-41">
          <mxCell style="vsdxID=25;fillColor=#58a28b;gradientColor=none;shape=stencil(nZBLDoAgDERP0z3SIyDew0QUooJB/N1eSGM0LFywm2lf23QAxarbRQFna/BuVIfpggasgXNjtfImRAUoAUXvvBq822xHfmkTmdTs9rThpDmWJji7yFWMfEPoZOwHfZpF8A9aCGbno3h/jCYPIJYoPJQ3);strokeColor=#92b3a9;strokeWidth=2;shadow=1;points=[];labelBackgroundColor=none;rounded=0;html=1;whiteSpace=wrap;" vertex="1" parent="1">
            <mxGeometry x="30" y="150" width="2476" height="913" as="geometry" />
          </mxCell>
        </UserObject>
        <UserObject label="" tags="Background" id="rB1mxTAFyo9l-1NCUvBi-42">
          <mxCell style="vsdxID=26;fillColor=none;gradientColor=none;strokeColor=none;shadow=1;points=[];labelBackgroundColor=none;rounded=0;html=1;whiteSpace=wrap;" vertex="1" parent="1">
            <mxGeometry x="30" y="150" width="2476" height="913" as="geometry" />
          </mxCell>
        </UserObject>
        <mxCell id="rB1mxTAFyo9l-1NCUvBi-43" value="&lt;div style=&quot;font-size: 1px&quot;&gt;&lt;/div&gt;" style="verticalAlign=middle;align=center;overflow=width;vsdxID=27;rotation=90;fillColor=none;gradientColor=none;fillOpacity=0;strokeColor=none;strokeWidth=2;shadow=1;spacingTop=-1;spacingBottom=-1;spacingLeft=-1;spacingRight=-1;points=[];labelBackgroundColor=none;rounded=0;html=1;whiteSpace=wrap;" vertex="1" parent="rB1mxTAFyo9l-1NCUvBi-42">
          <mxGeometry x="781" y="-782" width="913" height="2476" as="geometry" />
        </mxCell>
        <mxCell id="rB1mxTAFyo9l-1NCUvBi-44" value="&lt;div style=&quot;font-size: 1px&quot;&gt;&lt;/div&gt;" style="verticalAlign=middle;align=left;overflow=width;vsdxID=28;rotation=270;fillColor=#f2f2f2;gradientColor=none;shape=stencil(nZBLDoAgDERP0z3SIyjew0SURgSD+Lu9kMZoXLhwN9O+tukAlrNpJg1SzDH4QW/URgNYgZTkjA4UkwJUgGXng+6DX1zLfmoymdXo17xh5zmRJ6Q42BWCfc2oJfdAr+Yv+AP9Cb7OJ3H/2JG1HNGz/84klThPVCc=);strokeColor=#92b3a9;strokeWidth=2;shadow=1;spacingTop=-1;spacingBottom=-1;spacingLeft=-1;spacingRight=-1;points=[];labelBackgroundColor=none;rounded=0;html=1;whiteSpace=wrap;" vertex="1" parent="rB1mxTAFyo9l-1NCUvBi-42">
          <mxGeometry x="-408" y="479" width="985" height="25" as="geometry" />
        </mxCell>
        <UserObject label="" Function="Month 6" tags="Container" id="rB1mxTAFyo9l-1NCUvBi-45">
          <mxCell style="vsdxID=1021;fillColor=none;gradientColor=none;strokeColor=none;strokeWidth=2;spacingLeft=1;spacingRight=1;points=[[0.25,0,0],[0.5,0,0],[0.75,0,0],[1,0.25,0],[1,0.5,0],[1,0.75,0],[0.75,0.75,0],[0.5,0.75,0],[0.25,0.75,0],[0.25,0.75,0],[0.25,0.5,0],[0.25,0.25,0]];labelBackgroundColor=none;rounded=0;html=1;whiteSpace=wrap;" vertex="1" parent="1">
            <mxGeometry x="1876" y="190" width="146" height="127" as="geometry" />
          </mxCell>
        </UserObject>
        <mxCell id="rB1mxTAFyo9l-1NCUvBi-46" style="vsdxID=1022;fillColor=#ffffff;gradientColor=none;strokeOpacity=60;shape=stencil(UzV2Ls5ILEhVNTIoLinKz04tz0wpyVA1dlE1MsrMy0gtyiwBslSNXVWNndPyi1LTi/JL81Ig/IJEkEoQKze/DGRCBUSfAUiHkUElhGdoAOG7QZTmZOYhKTWlkVqYJFmKiXcDHpW0VojmIyADER1pmTk5kNhElkePPqAQJOqNXQE=);strokeColor=#92b3a9;shadow=1;points=[[0.25,0,0],[0.5,0,0],[0.75,0,0],[1,0.25,0],[1,0.5,0],[1,0.75,0],[0.75,1,0],[0.5,1,0],[0.25,1,0],[0,0.75,0],[0,0.5,0],[0,0.25,0]];labelBackgroundColor=none;rounded=0;html=1;whiteSpace=wrap;" vertex="1" parent="rB1mxTAFyo9l-1NCUvBi-45">
          <mxGeometry width="146" height="127" as="geometry" />
        </mxCell>
        <mxCell id="rB1mxTAFyo9l-1NCUvBi-47" value="&lt;div style=&quot;font-size: 1px&quot;&gt;&lt;p style=&quot;text-align:center;margin-left:0;margin-right:0;margin-top:0px;margin-bottom:0px;text-indent:0;vertical-align:middle;direction:ltr;&quot;&gt;&lt;/p&gt;&lt;/div&gt;" style="text;vsdxID=1022;fillColor=none;gradientColor=none;strokeOpacity=60;strokeColor=none;shadow=1;points=[[0.25,0,0],[0.5,0,0],[0.75,0,0],[1,0.25,0],[1,0.5,0],[1,0.75,0],[0.75,1,0],[0.5,1,0],[0.25,1,0],[0,0.75,0],[0,0.5,0],[0,0.25,0]];labelBackgroundColor=none;rounded=0;html=1;whiteSpace=wrap;verticalAlign=middle;align=center;overflow=width;;html=1;" vertex="1" parent="rB1mxTAFyo9l-1NCUvBi-46">
          <mxGeometry width="146.05" height="127" as="geometry" />
        </mxCell>
        <UserObject label="&lt;div style=&quot;font-size: 1px&quot;&gt;&lt;font style=&quot;font-size:14.11px;font-family:Calibri;color:#000000;direction:ltr;letter-spacing:0px;line-height:120%;opacity:1&quot;&gt;Procurement Process for Financial Service Provider/Grant Administrator&lt;br/&gt;&lt;/font&gt;&lt;/div&gt;" Function="The AECF" StartDate="2023-03-30T00:00:00" Status="Not Started" tags="Flowchart" id="rB1mxTAFyo9l-1NCUvBi-48">
          <mxCell style="vsdxID=38;fillColor=#58a28b;gradientColor=none;shape=stencil(tVJbDsIgEDwNnyQIaTxArfcgdtsSEZoFbb294NZYG9sPE/92dmZfDEyVodM9MClCRH+GwdSxY+rApDSuAzQxRUxVTJWNR2jRX11NuNdZmaOLv+UOI9XJIpdIcSe4E+KJj6S1xs20+02txlPicNEXJ3FB2pVWL5Lr0QSOPupovPvgrMYWeBrCG6vbaQOiwgDQz9IbJ8hvc385YOXd/nJCCt72NcZacn/OL+1OKfoqqnoA);strokeColor=#7d9990;spacingTop=-1;spacingBottom=-1;spacingLeft=-1;spacingRight=-1;points=[[0.5,1,0],[0.5,0,0],[0.5,0.5,0],[1,0.5,0]];labelBackgroundColor=none;rounded=0;html=1;whiteSpace=wrap;" vertex="1" parent="1">
            <mxGeometry x="101" y="346" width="119" height="89" as="geometry" />
          </mxCell>
        </UserObject>
        <UserObject label="" Function="The AECF" StartDate="2023-03-31T00:00:00" EndDate="2023-04-20T00:00:00" Status="Not Started" tags="Flowchart" id="rB1mxTAFyo9l-1NCUvBi-49">
          <mxCell style="vsdxID=39;fillColor=#58a28b;gradientColor=none;shape=stencil(UzV2Ls5ILEhVNTIoLinKz04tz0wpyVA1dlE1MsrMy0gtyiwBslSNXVWNndPyi1LTi/JL81Ig/IJEkEoQKze/DGRCBUSfAUiHkUElhGcK4bpBVOZk5iGpNEVVikeloQHZpsK0YlWLz1QgA+HFtMycHEgIIcujBwlQCBKcxq4A);strokeColor=#7d9990;spacingTop=-1;spacingBottom=-1;spacingLeft=-1;spacingRight=-1;points=[[1,0.5,0],[0.5,0,0],[0.5,0,0]];labelBackgroundColor=none;rounded=0;html=1;whiteSpace=wrap;" vertex="1" parent="1">
            <mxGeometry x="88" y="842" width="131" height="118" as="geometry" />
          </mxCell>
        </UserObject>
        <mxCell id="rB1mxTAFyo9l-1NCUvBi-50" value="&lt;div style=&quot;font-size: 1px&quot;&gt;&lt;font style=&quot;font-size:11.29px;font-family:Calibri;color:#000000;direction:ltr;letter-spacing:0px;line-height:120%;opacity:1&quot;&gt;Grant Administrator approved by PMC&lt;br/&gt;&lt;/font&gt;&lt;/div&gt;" style="text;vsdxID=39;fillColor=none;gradientColor=none;strokeColor=none;spacingTop=-1;spacingBottom=-1;spacingLeft=-1;spacingRight=-1;points=[[1,0.5,0],[0.5,0,0],[0.5,0,0]];labelBackgroundColor=none;rounded=0;html=1;whiteSpace=wrap;verticalAlign=middle;align=center;overflow=width;;html=1;" vertex="1" parent="rB1mxTAFyo9l-1NCUvBi-49">
          <mxGeometry x="10.93" y="14.37" width="109.28" height="88.83" as="geometry" />
        </mxCell>
        <UserObject label="&lt;div style=&quot;font-size: 1px&quot;&gt;&lt;font style=&quot;font-size:11.29px;font-family:Calibri;color:#000000;direction:ltr;letter-spacing:0px;line-height:120%;opacity:1&quot;&gt;Grant Admin &amp;amp; AECF sets up Business Incubation Facility (BIF)&lt;br/&gt;&lt;/font&gt;&lt;/div&gt;" Function="Business Incubation Facility (BIF) set up" tags="Flowchart" id="rB1mxTAFyo9l-1NCUvBi-51">
          <mxCell style="verticalAlign=middle;align=center;overflow=width;vsdxID=41;fillColor=#d5b546;gradientColor=none;shape=stencil(nZBLDoAgDERP0z3SIyjew0SURgSD+Lu9kMZoXLhwN9O+tukAlrNpJg1SzDH4QW/URgNYgZTkjA4UkwJUgGXng+6DX1zLfmoymdXo17xh5zmRJ6Q42BWCfc2oJfdAr+Yv+AP9Cb7OJ3H/2JG1HNGz/84klThPVCc=);strokeColor=#b6ab84;spacingTop=-1;spacingBottom=-1;spacingLeft=-1;spacingRight=-1;points=[[1,0.5,0],[0.5,0.5,0],[0.5,0,0]];labelBackgroundColor=none;rounded=0;html=1;whiteSpace=wrap;" vertex="1" parent="1">
            <mxGeometry x="312" y="175" width="190" height="114" as="geometry" />
          </mxCell>
        </UserObject>
        <UserObject label="&lt;div style=&quot;font-size: 1px&quot;&gt;&lt;font style=&quot;font-size:11.29px;font-family:Calibri;color:#000000;direction:ltr;letter-spacing:0px;line-height:120%;opacity:1&quot;&gt;Grant Admin Registers Micro-Enterprises/Women Groups&lt;br/&gt;&lt;/font&gt;&lt;/div&gt;" Function="Grant Administrator" tags="Flowchart" id="rB1mxTAFyo9l-1NCUvBi-52">
          <mxCell style="verticalAlign=middle;align=center;overflow=width;vsdxID=43;fillColor=#d5b546;gradientColor=none;shape=stencil(nZBLDoAgDERP0z3SIyjew0SURgSD+Lu9kMZoXLhwN9O+tukAlrNpJg1SzDH4QW/URgNYgZTkjA4UkwJUgGXng+6DX1zLfmoymdXo17xh5zmRJ6Q42BWCfc2oJfdAr+Yv+AP9Cb7OJ3H/2JG1HNGz/84klThPVCc=);strokeColor=#b6ab84;spacingTop=-1;spacingBottom=-1;spacingLeft=-1;spacingRight=-1;points=[[1,0.5,0],[0.5,0.5,0],[0.5,0,0]];labelBackgroundColor=none;rounded=0;html=1;whiteSpace=wrap;" vertex="1" parent="1">
            <mxGeometry x="541" y="285" width="160" height="120" as="geometry" />
          </mxCell>
        </UserObject>
        <UserObject label="&lt;div style=&quot;font-size: 1px&quot;&gt;&lt;p style=&quot;text-align:left;margin-left:0;margin-right:0;margin-top:0px;margin-bottom:0px;text-indent:0;vertical-align:middle;direction:ltr;&quot;&gt;&lt;font style=&quot;font-size:15.52px;font-family:Calibri;color:#000000;direction:ltr;letter-spacing:0px;line-height:120%;opacity:1&quot;&gt;Micro enterprises provided with the training record and business record book.&lt;br/&gt;&lt;/font&gt;&lt;/p&gt;&lt;/div&gt;" Function="Business Incubation Facility (BIF)" tags="Flowchart" id="rB1mxTAFyo9l-1NCUvBi-53">
          <mxCell style="verticalAlign=middle;align=left;overflow=width;vsdxID=71;fillColor=#d5b546;gradientColor=none;shape=stencil(nZBLDoAgDERP0z3SIyjew0SURgSD+Lu9kMZoXLhwN9O+tukAlrNpJg1SzDH4QW/URgNYgZTkjA4UkwJUgGXng+6DX1zLfmoymdXo17xh5zmRJ6Q42BWCfc2oJfdAr+Yv+AP9Cb7OJ3H/2JG1HNGz/84klThPVCc=);strokeColor=#b6ab84;spacingTop=-1;spacingBottom=-1;spacingLeft=-1;spacingRight=-1;points=[[0,0.5,0],[1,0.5,0],[0.5,1,0],[0.5,0,0]];labelBackgroundColor=none;rounded=0;html=1;whiteSpace=wrap;" vertex="1" parent="1">
            <mxGeometry x="1173" y="461" width="101" height="152" as="geometry" />
          </mxCell>
        </UserObject>
        <UserObject label="&lt;div style=&quot;font-size: 1px&quot;&gt;&lt;font style=&quot;font-size:15.52px;font-family:Calibri;color:#000000;direction:ltr;letter-spacing:0px;line-height:120%;opacity:1&quot;&gt;Grant Administrator compiles grant application forms with supporting documents – training records, business records and bank statement&lt;/font&gt;&lt;font style=&quot;font-size:11.29px;font-family:Themed;color:#000000;direction:ltr;letter-spacing:0px;line-height:120%;opacity:1&quot;&gt;&lt;br/&gt;&lt;/font&gt;&lt;/div&gt;" Function="Month 5" tags="Flowchart" id="rB1mxTAFyo9l-1NCUvBi-54">
          <mxCell style="verticalAlign=middle;align=center;overflow=width;vsdxID=91;fillColor=#d5b546;gradientColor=none;shape=stencil(nZBLDoAgDERP0z3SIyjew0SURgSD+Lu9kMZoXLhwN9O+tukAlrNpJg1SzDH4QW/URgNYgZTkjA4UkwJUgGXng+6DX1zLfmoymdXo17xh5zmRJ6Q42BWCfc2oJfdAr+Yv+AP9Cb7OJ3H/2JG1HNGz/84klThPVCc=);strokeColor=#b6ab84;spacingTop=-1;spacingBottom=-1;spacingLeft=-1;spacingRight=-1;points=[[1,0.5,0],[0.5,0.5,0],[0.5,0,0]];labelBackgroundColor=none;rounded=0;html=1;whiteSpace=wrap;" vertex="1" parent="1">
            <mxGeometry x="1704" y="329" width="120" height="203" as="geometry" />
          </mxCell>
        </UserObject>
        <UserObject label="&lt;div style=&quot;font-size: 1px&quot;&gt;&lt;font style=&quot;font-size:15.52px;font-family:Calibri;color:#000000;direction:ltr;letter-spacing:0px;line-height:120%;opacity:1&quot;&gt;AECF local coach writes a recommendation supporting the grant applications&lt;/font&gt;&lt;font style=&quot;font-size:11.29px;font-family:Themed;color:#000000;direction:ltr;letter-spacing:0px;line-height:120%;opacity:1&quot;&gt;&lt;br/&gt;&lt;/font&gt;&lt;/div&gt;" Function="Month 5" tags="Flowchart" id="rB1mxTAFyo9l-1NCUvBi-55">
          <mxCell style="verticalAlign=middle;align=center;overflow=width;vsdxID=93;fillColor=#d5b546;gradientColor=none;shape=stencil(nZBLDoAgDERP0z3SIyjew0SURgSD+Lu9kMZoXLhwN9O+tukAlrNpJg1SzDH4QW/URgNYgZTkjA4UkwJUgGXng+6DX1zLfmoymdXo17xh5zmRJ6Q42BWCfc2oJfdAr+Yv+AP9Cb7OJ3H/2JG1HNGz/84klThPVCc=);strokeColor=#b6ab84;spacingTop=-1;spacingBottom=-1;spacingLeft=-1;spacingRight=-1;points=[[1,0.5,0],[0.5,0.5,0],[0.5,0,0]];labelBackgroundColor=none;rounded=0;html=1;whiteSpace=wrap;" vertex="1" parent="1">
            <mxGeometry x="1704" y="592" width="120" height="101" as="geometry" />
          </mxCell>
        </UserObject>
        <UserObject label="&lt;div style=&quot;font-size: 1px&quot;&gt;&lt;font style=&quot;font-size:15.52px;font-family:Calibri;color:#000000;direction:ltr;letter-spacing:0px;line-height:120%;opacity:1&quot;&gt;AECF reviews the grant applications and issues no objection or objection&lt;/font&gt;&lt;font style=&quot;font-size:11.29px;font-family:Themed;color:#000000;direction:ltr;letter-spacing:0px;line-height:120%;opacity:1&quot;&gt;&lt;br/&gt;&lt;/font&gt;&lt;/div&gt;" Function="Month 6" tags="Flowchart" id="rB1mxTAFyo9l-1NCUvBi-56">
          <mxCell style="verticalAlign=middle;align=center;overflow=width;vsdxID=98;fillColor=#d5b546;gradientColor=none;shape=stencil(nZBLDoAgDERP0z3SIyjew0SURgSD+Lu9kMZoXLhwN9O+tukAlrNpJg1SzDH4QW/URgNYgZTkjA4UkwJUgGXng+6DX1zLfmoymdXo17xh5zmRJ6Q42BWCfc2oJfdAr+Yv+AP9Cb7OJ3H/2JG1HNGz/84klThPVCc=);strokeColor=#b6ab84;spacingTop=-1;spacingBottom=-1;spacingLeft=-1;spacingRight=-1;points=[[1,0.5,0],[0.5,0.5,0],[0.5,0,0]];labelBackgroundColor=none;rounded=0;html=1;whiteSpace=wrap;" vertex="1" parent="1">
            <mxGeometry x="1889" y="363" width="120" height="133" as="geometry" />
          </mxCell>
        </UserObject>
        <UserObject label="&lt;div style=&quot;font-size: 1px&quot;&gt;&lt;font style=&quot;font-size:15.52px;font-family:Calibri;color:#000000;direction:ltr;letter-spacing:0px;line-height:120%;opacity:1&quot;&gt;Declined&lt;/font&gt;&lt;font style=&quot;font-size:15.52px;font-family:Calibri;color:#000000;direction:ltr;letter-spacing:0px;line-height:120%;opacity:1&quot;&gt; applications revert to BIF phase to receive additional support to reapply for grant&lt;/font&gt;&lt;font style=&quot;font-size:11.29px;font-family:Themed;color:#000000;direction:ltr;letter-spacing:0px;line-height:120%;opacity:1&quot;&gt;&lt;br/&gt;&lt;/font&gt;&lt;/div&gt;" Function="Month 6" tags="Flowchart" id="rB1mxTAFyo9l-1NCUvBi-57">
          <mxCell style="verticalAlign=middle;align=center;overflow=width;vsdxID=161;fillColor=#d5b546;gradientColor=none;shape=stencil(nZBLDoAgDERP0z3SIyjew0SURgSD+Lu9kMZoXLhwN9O+tukAlrNpJg1SzDH4QW/URgNYgZTkjA4UkwJUgGXng+6DX1zLfmoymdXo17xh5zmRJ6Q42BWCfc2oJfdAr+Yv+AP9Cb7OJ3H/2JG1HNGz/84klThPVCc=);strokeColor=#b6ab84;spacingTop=-1;spacingBottom=-1;spacingLeft=-1;spacingRight=-1;points=[[1,0.5,0],[0.5,0.5,0],[0.5,0,0]];labelBackgroundColor=none;rounded=0;html=1;whiteSpace=wrap;" vertex="1" parent="1">
            <mxGeometry x="1889" y="548" width="120" height="203" as="geometry" />
          </mxCell>
        </UserObject>
        <UserObject label="&lt;div style=&quot;font-size: 1px&quot;&gt;&lt;font style=&quot;font-size:15.52px;font-family:Calibri;color:#000000;direction:ltr;letter-spacing:0px;line-height:120%;opacity:1&quot;&gt;No &lt;/font&gt;&lt;font style=&quot;font-size:15.52px;font-family:Calibri;color:#000000;direction:ltr;letter-spacing:0px;line-height:120%;opacity:1&quot;&gt;approval&lt;/font&gt;&lt;font style=&quot;font-size:15.52px;font-family:Calibri;color:#000000;direction:ltr;letter-spacing:0px;line-height:120%;opacity:1&quot;&gt; AECF disburses the grants, and they proceed to monitoring&lt;/font&gt;&lt;font style=&quot;font-size:11.29px;font-family:Themed;color:#000000;direction:ltr;letter-spacing:0px;line-height:120%;opacity:1&quot;&gt;&lt;br/&gt;&lt;/font&gt;&lt;/div&gt;" Function="Month 6" tags="Flowchart" id="rB1mxTAFyo9l-1NCUvBi-58">
          <mxCell style="verticalAlign=middle;align=center;overflow=width;vsdxID=165;fillColor=#d5b546;gradientColor=none;shape=stencil(nZBLDoAgDERP0z3SIyjew0SURgSD+Lu9kMZoXLhwN9O+tukAlrNpJg1SzDH4QW/URgNYgZTkjA4UkwJUgGXng+6DX1zLfmoymdXo17xh5zmRJ6Q42BWCfc2oJfdAr+Yv+AP9Cb7OJ3H/2JG1HNGz/84klThPVCc=);strokeColor=#b6ab84;spacingTop=-1;spacingBottom=-1;spacingLeft=-1;spacingRight=-1;points=[[1,0.5,0],[0.5,0.5,0],[0.5,0,0]];labelBackgroundColor=none;rounded=0;html=1;whiteSpace=wrap;" vertex="1" parent="1">
            <mxGeometry x="1889" y="202" width="120" height="101" as="geometry" />
          </mxCell>
        </UserObject>
        <UserObject label="" Function="Month 6" tags="Flowchart" id="rB1mxTAFyo9l-1NCUvBi-59">
          <mxCell style="vsdxID=168;fillColor=#58a28b;gradientColor=none;shape=stencil(UzV2Ls5ILEhVNTIoLinKz04tz0wpyVA1dlE1MsrMy0gtyiwBslSNXVWNndPyi1LTi/JL81Ig/IJEkEoQKze/DGRCBUSfAUiHkUElhGcK4bpBVOZk5iGpNEVVikeloQHZpsK0YlWLz1QgA+HFtMycHEgIIcujBwlQCBKcxq4A);strokeColor=#7d9990;spacingTop=-1;spacingBottom=-1;spacingLeft=-1;spacingRight=-1;points=[[0,0.5,0],[1,0.5,0],[0.5,0,0],[0.5,1,0]];labelBackgroundColor=none;rounded=0;html=1;whiteSpace=wrap;" vertex="1" parent="1">
            <mxGeometry x="2060" y="392" width="101" height="76" as="geometry" />
          </mxCell>
        </UserObject>
        <mxCell id="rB1mxTAFyo9l-1NCUvBi-60" value="&lt;div style=&quot;font-size: 1px&quot;&gt;&lt;font style=&quot;font-size:11.29px;font-family:Calibri;color:#000000;direction:ltr;letter-spacing:0px;line-height:120%;opacity:1&quot;&gt;Approval&lt;br/&gt;&lt;/font&gt;&lt;/div&gt;" style="text;vsdxID=168;fillColor=none;gradientColor=none;strokeColor=none;spacingTop=-1;spacingBottom=-1;spacingLeft=-1;spacingRight=-1;points=[[0,0.5,0],[1,0.5,0],[0.5,0,0],[0.5,1,0]];labelBackgroundColor=none;rounded=0;html=1;whiteSpace=wrap;verticalAlign=middle;align=center;overflow=width;;html=1;" vertex="1" parent="rB1mxTAFyo9l-1NCUvBi-59">
          <mxGeometry x="8.47" y="9.33" width="84.67" height="57.15" as="geometry" />
        </mxCell>
        <UserObject label="&lt;div style=&quot;font-size: 1px&quot;&gt;&lt;font style=&quot;font-size:11.29px;font-family:Calibri;color:#000000;direction:ltr;letter-spacing:0px;line-height:120%;opacity:1&quot;&gt;Receive Grant &amp;amp; Proceed to monitoring&lt;br/&gt;&lt;/font&gt;&lt;/div&gt;" Function="Month 6" tags="Flowchart" id="rB1mxTAFyo9l-1NCUvBi-61">
          <mxCell style="verticalAlign=middle;align=center;overflow=width;vsdxID=172;fillColor=#58a28b;gradientColor=none;shape=stencil(tVJbDsIgEDwNnyQIaTxArfcgdtsSEZoFbb294NZYG9sPE/92dmZfDEyVodM9MClCRH+GwdSxY+rApDSuAzQxRUxVTJWNR2jRX11NuNdZmaOLv+UOI9XJIpdIcSe4E+KJj6S1xs20+02txlPicNEXJ3FB2pVWL5Lr0QSOPupovPvgrMYWeBrCG6vbaQOiwgDQz9IbJ8hvc385YOXd/nJCCt72NcZacn/OL+1OKfoqqnoA);strokeColor=#7d9990;spacingTop=-1;spacingBottom=-1;spacingLeft=-1;spacingRight=-1;points=[[0.5,1,0],[0.5,0,0],[0,0.5,0],[1,0.5,0]];labelBackgroundColor=none;rounded=0;html=1;whiteSpace=wrap;" vertex="1" parent="1">
            <mxGeometry x="2060" y="227" width="101" height="53" as="geometry" />
          </mxCell>
        </UserObject>
        <UserObject label="&lt;div style=&quot;font-size: 1px&quot;&gt;&lt;font style=&quot;font-size:15.52px;font-family:Calibri;color:#000000;direction:ltr;letter-spacing:0px;line-height:120%;opacity:1&quot;&gt;Grant Administrator identifies micro enterprises that have attained the requirements to apply for grant&lt;/font&gt;&lt;font style=&quot;font-size:11.29px;font-family:Themed;color:#000000;direction:ltr;letter-spacing:0px;line-height:120%;opacity:1&quot;&gt;&lt;br/&gt;&lt;/font&gt;&lt;/div&gt;" Function="Month 3 - 4" tags="Flowchart" id="rB1mxTAFyo9l-1NCUvBi-62">
          <mxCell style="verticalAlign=middle;align=center;overflow=width;vsdxID=174;fillColor=#d5b546;gradientColor=none;shape=stencil(nZBLDoAgDERP0z3SIyjew0SURgSD+Lu9kMZoXLhwN9O+tukAlrNpJg1SzDH4QW/URgNYgZTkjA4UkwJUgGXng+6DX1zLfmoymdXo17xh5zmRJ6Q42BWCfc2oJfdAr+Yv+AP9Cb7OJ3H/2JG1HNGz/84klThPVCc=);strokeColor=#b6ab84;spacingTop=-1;spacingBottom=-1;spacingLeft=-1;spacingRight=-1;points=[[1,0.5,0],[0.5,0.5,0],[0.5,0,0]];labelBackgroundColor=none;rounded=0;html=1;whiteSpace=wrap;" vertex="1" parent="1">
            <mxGeometry x="1533" y="329" width="120" height="203" as="geometry" />
          </mxCell>
        </UserObject>
        <UserObject label="&lt;div style=&quot;font-size: 1px&quot;&gt;&lt;p style=&quot;text-align:left;margin-left:0;margin-right:0;margin-top:0px;margin-bottom:0px;text-indent:0;vertical-align:middle;direction:ltr;&quot;&gt;&lt;font style=&quot;font-size:15.52px;font-family:Calibri;color:#000000;direction:ltr;letter-spacing:0px;line-height:120%;opacity:1&quot;&gt;Micro enterprise fills the grant application form.&lt;br/&gt;&lt;/font&gt;&lt;/p&gt;&lt;/div&gt;" Function="Month 1 - 2" tags="Flowchart" id="rB1mxTAFyo9l-1NCUvBi-63">
          <mxCell style="verticalAlign=middle;align=left;overflow=width;vsdxID=177;fillColor=#d5b546;gradientColor=none;shape=stencil(nZBLDoAgDERP0z3SIyjew0SURgSD+Lu9kMZoXLhwN9O+tukAlrNpJg1SzDH4QW/URgNYgZTkjA4UkwJUgGXng+6DX1zLfmoymdXo17xh5zmRJ6Q42BWCfc2oJfdAr+Yv+AP9Cb7OJ3H/2JG1HNGz/84klThPVCc=);strokeColor=#b6ab84;spacingTop=-1;spacingBottom=-1;spacingLeft=-1;spacingRight=-1;points=[[0,0.5,0],[1,0.5,0],[0.5,1,0],[0.5,0,0]];labelBackgroundColor=none;rounded=0;html=1;whiteSpace=wrap;" vertex="1" parent="1">
            <mxGeometry x="1362" y="307" width="120" height="76" as="geometry" />
          </mxCell>
        </UserObject>
        <UserObject label="&lt;div style=&quot;font-size: 1px&quot;&gt;&lt;font style=&quot;font-size:15.52px;font-family:Calibri;color:#000000;direction:ltr;letter-spacing:0px;line-height:120%;opacity:1&quot;&gt;AECF local coaches develop a training calendar with micro enterprises and the grant administrator&lt;/font&gt;&lt;font style=&quot;font-size:14.11px;font-family:Themed;color:#000000;direction:ltr;letter-spacing:0px;line-height:120%;opacity:1&quot;&gt;&lt;br/&gt;&lt;/font&gt;&lt;/div&gt;" Function="Coaches" tags="Background" id="rB1mxTAFyo9l-1NCUvBi-64">
          <mxCell style="verticalAlign=middle;align=center;overflow=width;vsdxID=183;fillColor=#d5b546;gradientColor=none;shape=stencil(vVTbDoMgDP0aHjEOErc9O/cfZKKSMTGFTff3w6BRmS6ZMb71ckrbk0MRjXXBKo5IqA2oO69FagpEL4gQURYchLEWogmicaaA56CeZer8irXI1nqoV/tC4+oOYVtCwnfvOv/qsFKUI+x5MyyDm82BNwP0YBpQ6kLNtLx/7hQF0bFDYNYIjUEZZoQqXb5DSwY5x7YZziTLJyldc159hWdX8ZsP463cxuMm3GuR2b4LK2+B/JeXJZp3oGZJXqv1Oqv+XcT6699ZYzgEmZDS3ZFx3j8cNuSODk0+);strokeColor=#ecddab;points=[[0,0.5,0],[1,0.5,0],[0.5,1,0],[0.5,0,0],[0.03,0.04,0],[0.97,0.04,0],[0.03,0.96,0],[0.97,0.96,0]];labelBackgroundColor=none;rounded=0;html=1;whiteSpace=wrap;" vertex="1" parent="1">
            <mxGeometry x="962" y="434" width="160" height="120" as="geometry" />
          </mxCell>
        </UserObject>
        <UserObject label="&lt;div style=&quot;font-size: 1px&quot;&gt;&lt;font style=&quot;font-size:15.52px;font-family:Calibri;color:#000000;direction:ltr;letter-spacing:0px;line-height:120%;opacity:1&quot;&gt;Micro enterprise&lt;/font&gt;&lt;font style=&quot;font-size:15.52px;font-family:Calibri;color:#000000;direction:ltr;letter-spacing:0px;line-height:120%;opacity:1&quot;&gt;,&lt;/font&gt;&lt;font style=&quot;font-size:15.52px;font-family:Calibri;color:#000000;direction:ltr;letter-spacing:0px;line-height:120%;opacity:1&quot;&gt; AECF local coach&lt;/font&gt;&lt;font style=&quot;font-size:15.52px;font-family:Calibri;color:#000000;direction:ltr;letter-spacing:0px;line-height:120%;opacity:1&quot;&gt;, &lt;/font&gt;&lt;font style=&quot;font-size:15.52px;font-family:Calibri;color:#000000;direction:ltr;letter-spacing:0px;line-height:120%;opacity:1&quot;&gt;Grant Administrator update&lt;/font&gt;&lt;font style=&quot;font-size:15.52px;font-family:Calibri;color:#000000;direction:ltr;letter-spacing:0px;line-height:120%;opacity:1&quot;&gt; &amp;amp; &lt;/font&gt;&lt;font style=&quot;font-size:15.52px;font-family:Calibri;color:#000000;direction:ltr;letter-spacing:0px;line-height:120%;opacity:1&quot;&gt; maintain record of training, business income and expenditure&lt;/font&gt;&lt;font style=&quot;font-size:14.11px;font-family:Themed;color:#000000;direction:ltr;letter-spacing:0px;line-height:120%;opacity:1&quot;&gt;&lt;br/&gt;&lt;/font&gt;&lt;/div&gt;" Function="Grant Administrator" tags="Background" id="rB1mxTAFyo9l-1NCUvBi-65">
          <mxCell style="verticalAlign=middle;align=center;overflow=width;vsdxID=188;fillColor=#d5b546;gradientColor=none;shape=stencil(vZTbDoIwDIafZpcssBHFa9T3WHTA4mSkTMG3d6QQdTITE8JdD1/X/E1XwvO2Eo0kLG4tmIvs1NlWhO8JY6quJCjrLMIPhOeFAVmCudVn9BsxkIN1NffhhR7rkngoYfFjctE/IqtV/cbuFmMFnFwOJpZuU6RhxDOaZBjpP+un93YJ3YxAJHrVRmCssMrUmB5hLaCUkWsWFVqUH6m2k7L5Cs9K8XtnNA1rmeYJHhyYS7yWiNm+AblLkP9NZX7AK4wlsFUBEZRtfR0b5u3p7NqvsqW/PpwzXhegUFrjAXnP+xfDhfDa8MMT);strokeColor=#ecddab;points=[[0,0.5,0],[1,0.5,0],[0.5,1,0],[0.5,0,0],[0.03,0.04,0],[0.97,0.04,0],[0.03,0.96,0],[0.97,0.96,0]];labelBackgroundColor=none;rounded=0;html=1;whiteSpace=wrap;" vertex="1" parent="1">
            <mxGeometry x="541" y="456" width="160" height="190" as="geometry" />
          </mxCell>
        </UserObject>
        <UserObject label="&lt;div style=&quot;font-size: 1px&quot;&gt;&lt;font style=&quot;font-size:14.11px;font-family:Calibri;color:#000000;direction:ltr;letter-spacing:0px;line-height:120%;opacity:1&quot;&gt;The AECF&lt;br/&gt;&lt;/font&gt;&lt;/div&gt;" Function="The AECF" tags="Background" id="rB1mxTAFyo9l-1NCUvBi-66">
          <mxCell style="verticalAlign=middle;align=center;overflow=width;vsdxID=1000;fillColor=#d5b546;gradientColor=none;shape=stencil(vVTbDoMgDP0aHjEOErc9O/cfZKKSMTGFTff3w6BRmS6ZMb71ckrbk0MRjXXBKo5IqA2oO69FagpEL4gQURYchLEWogmicaaA56CeZer8irXI1nqoV/tC4+oOYVtCwnfvOv/qsFKUI+x5MyyDm82BNwP0YBpQ6kLNtLx/7hQF0bFDYNYIjUEZZoQqXb5DSwY5x7YZziTLJyldc159hWdX8ZsP463cxuMm3GuR2b4LK2+B/JeXJZp3oGZJXqv1Oqv+XcT6699ZYzgEmZDS3ZFx3j8cNuSODk0+);strokeColor=#b6ab84;spacingTop=-1;spacingBottom=-1;spacingLeft=-1;spacingRight=-1;points=[[0,0.5,0],[1,0.5,0],[0.5,1,0],[0.5,0,0],[0.03,0.04,0],[0.97,0.04,0],[0.03,0.96,0],[0.97,0.96,0]];labelBackgroundColor=none;rounded=0;html=1;whiteSpace=wrap;" vertex="1" parent="1">
            <mxGeometry x="80" y="176" width="160" height="120" as="geometry" />
          </mxCell>
        </UserObject>
        <UserObject label="&lt;div style=&quot;font-size: 1px&quot;&gt;&lt;p style=&quot;text-align:center;margin-left:0;margin-right:0;margin-top:0px;margin-bottom:0px;text-indent:0;vertical-align:middle;direction:ltr;&quot;&gt;&lt;font style=&quot;font-size:11.29px;font-family:Calibri;color:#000000;direction:ltr;letter-spacing:0px;line-height:120%;opacity:1&quot;&gt;Financial Services Provider&lt;br/&gt;&lt;/font&gt;&lt;/p&gt;&lt;p style=&quot;text-align:left;margin-left:25;margin-right:0;margin-top:0px;margin-bottom:0px;text-indent:-25.4;vertical-align:middle;direction:ltr;&quot;&gt;&lt;ul style=&quot;margin: 0;list-style-type: disc&quot;&gt;&lt;font style=&quot;font-size:11.29px;font-family:Themed;color:#000000;direction:ltr;letter-spacing:0px;line-height:120%;opacity:1&quot;&gt;&lt;li&gt;Access to resilient markets&lt;/li&gt;&lt;li&gt;Access to climate smart tech&lt;/li&gt;&lt;li&gt;Social norms change work&lt;/font&gt;&lt;/li&gt;&lt;/ul&gt;&lt;/p&gt;&lt;/div&gt;" Function="Technical Assistance" tags="Flowchart" id="rB1mxTAFyo9l-1NCUvBi-67">
          <mxCell style="verticalAlign=middle;align=center;overflow=width;vsdxID=1017;fillColor=#d5b546;gradientColor=none;shape=stencil(nZBLDoAgDERP0z3SIyjew0SURgSD+Lu9kMZoXLhwN9O+tukAlrNpJg1SzDH4QW/URgNYgZTkjA4UkwJUgGXng+6DX1zLfmoymdXo17xh5zmRJ6Q42BWCfc2oJfdAr+Yv+AP9Cb7OJ3H/2JG1HNGz/84klThPVCc=);strokeColor=#b6ab84;spacingTop=-1;spacingBottom=-1;spacingLeft=-1;spacingRight=-1;points=[[1,0.5,0],[0.5,0.5,0],[0.5,0,0]];labelBackgroundColor=none;rounded=0;html=1;whiteSpace=wrap;" vertex="1" parent="1">
            <mxGeometry x="752" y="175" width="160" height="120" as="geometry" />
          </mxCell>
        </UserObject>
        <UserObject label="&lt;div style=&quot;font-size: 1px&quot;&gt;&lt;font style=&quot;font-size:11.29px;font-family:Calibri;color:#000000;direction:ltr;letter-spacing:0px;line-height:120%;opacity:1&quot;&gt;AECF record the issued grants, expected results and milestones&lt;br/&gt;&lt;/font&gt;&lt;/div&gt;" Function="Monitoring" tags="Background" id="rB1mxTAFyo9l-1NCUvBi-68">
          <mxCell style="verticalAlign=middle;align=center;overflow=width;vsdxID=1026;fillColor=#d5b546;gradientColor=none;shape=stencil(nZBLDoAgDERP0z3SIyjew0SURgSD+Lu9kMZoXLhwN9O+tukAlrNpJg1SzDH4QW/URgNYgZTkjA4UkwJUgGXng+6DX1zLfmoymdXo17xh5zmRJ6Q42BWCfc2oJfdAr+Yv+AP9Cb7OJ3H/2JG1HNGz/84klThPVCc=);strokeColor=#196283;spacingTop=-1;spacingBottom=-1;spacingLeft=-1;spacingRight=-1;points=[];labelBackgroundColor=none;rounded=0;html=1;whiteSpace=wrap;" vertex="1" parent="1">
            <mxGeometry x="2213" y="194" width="107" height="63" as="geometry" />
          </mxCell>
        </UserObject>
        <UserObject label="&lt;div style=&quot;font-size: 1px&quot;&gt;&lt;font style=&quot;font-size:15.52px;font-family:Calibri;color:#000000;direction:ltr;letter-spacing:0px;line-height:120%;opacity:1&quot;&gt;Grant administrator validated the expected results and milestones&lt;/font&gt;&lt;font style=&quot;font-size:11.29px;font-family:Themed;color:#000000;direction:ltr;letter-spacing:0px;line-height:120%;opacity:1&quot;&gt;&lt;br/&gt;&lt;/font&gt;&lt;/div&gt;" Function="Monitoring" tags="Background" id="rB1mxTAFyo9l-1NCUvBi-69">
          <mxCell style="verticalAlign=middle;align=center;overflow=width;vsdxID=1028;fillColor=#d5b546;gradientColor=none;shape=stencil(nZBLDoAgDERP0z3SIyjew0SURgSD+Lu9kMZoXLhwN9O+tukAlrNpJg1SzDH4QW/URgNYgZTkjA4UkwJUgGXng+6DX1zLfmoymdXo17xh5zmRJ6Q42BWCfc2oJfdAr+Yv+AP9Cb7OJ3H/2JG1HNGz/84klThPVCc=);strokeColor=#196283;spacingTop=-1;spacingBottom=-1;spacingLeft=-1;spacingRight=-1;points=[];labelBackgroundColor=none;rounded=0;html=1;whiteSpace=wrap;" vertex="1" parent="1">
            <mxGeometry x="2213" y="283" width="107" height="127" as="geometry" />
          </mxCell>
        </UserObject>
        <UserObject label="&lt;div style=&quot;font-size: 1px&quot;&gt;&lt;font style=&quot;font-size:15.52px;font-family:Calibri;color:#000000;direction:ltr;letter-spacing:0px;line-height:120%;opacity:1&quot;&gt;Grant administrator uploads monitoring visits verification reports and MoVs on financial performance/sustainability&lt;/font&gt;&lt;font style=&quot;font-size:11.29px;font-family:Themed;color:#000000;direction:ltr;letter-spacing:0px;line-height:120%;opacity:1&quot;&gt;&lt;br/&gt;&lt;/font&gt;&lt;/div&gt;" Function="Monitoring" tags="Background" id="rB1mxTAFyo9l-1NCUvBi-70">
          <mxCell style="verticalAlign=middle;align=center;overflow=width;vsdxID=1029;fillColor=#d5b546;gradientColor=none;shape=stencil(nZBLDoAgDERP0z3SIyjew0SURgSD+Lu9kMZoXLhwN9O+tukAlrNpJg1SzDH4QW/URgNYgZTkjA4UkwJUgGXng+6DX1zLfmoymdXo17xh5zmRJ6Q42BWCfc2oJfdAr+Yv+AP9Cb7OJ3H/2JG1HNGz/84klThPVCc=);strokeColor=#196283;spacingTop=-1;spacingBottom=-1;spacingLeft=-1;spacingRight=-1;points=[];labelBackgroundColor=none;rounded=0;html=1;whiteSpace=wrap;" vertex="1" parent="1">
            <mxGeometry x="2214" y="448" width="107" height="203" as="geometry" />
          </mxCell>
        </UserObject>
        <UserObject label="&lt;div style=&quot;font-size: 1px&quot;&gt;&lt;font style=&quot;font-size:15.52px;font-family:Calibri;color:#000000;direction:ltr;letter-spacing:0px;line-height:120%;opacity:1&quot;&gt;Grant administrator provides half year and end year portfolio performance report&lt;/font&gt;&lt;font style=&quot;font-size:11.29px;font-family:Themed;color:#000000;direction:ltr;letter-spacing:0px;line-height:120%;opacity:1&quot;&gt;&lt;br/&gt;&lt;/font&gt;&lt;/div&gt;" Function="Monitoring" tags="Background" id="rB1mxTAFyo9l-1NCUvBi-71">
          <mxCell style="verticalAlign=middle;align=center;overflow=width;vsdxID=1030;fillColor=#d5b546;gradientColor=none;shape=stencil(nZBLDoAgDERP0z3SIyjew0SURgSD+Lu9kMZoXLhwN9O+tukAlrNpJg1SzDH4QW/URgNYgZTkjA4UkwJUgGXng+6DX1zLfmoymdXo17xh5zmRJ6Q42BWCfc2oJfdAr+Yv+AP9Cb7OJ3H/2JG1HNGz/84klThPVCc=);strokeColor=#196283;spacingTop=-1;spacingBottom=-1;spacingLeft=-1;spacingRight=-1;points=[];labelBackgroundColor=none;rounded=0;html=1;whiteSpace=wrap;" vertex="1" parent="1">
            <mxGeometry x="2214" y="702" width="107" height="152" as="geometry" />
          </mxCell>
        </UserObject>
        <UserObject label="&lt;div style=&quot;font-size: 1px&quot;&gt;&lt;font style=&quot;font-size:15.52px;font-family:Calibri;color:#000000;direction:ltr;letter-spacing:0px;line-height:120%;opacity:1&quot;&gt;Contract and Dispute Resolution&lt;/font&gt;&lt;font style=&quot;font-size:11.29px;font-family:Themed;color:#000000;direction:ltr;letter-spacing:0px;line-height:120%;opacity:1&quot;&gt;&lt;br/&gt;&lt;/font&gt;&lt;/div&gt;" Function="Contract and Disputes Resolution" tags="Background" id="rB1mxTAFyo9l-1NCUvBi-72">
          <mxCell style="verticalAlign=middle;align=center;overflow=width;vsdxID=1034;fillColor=#d5b546;gradientColor=none;shape=stencil(nZBLDoAgDERP0z3SIyjew0SURgSD+Lu9kMZoXLhwN9O+tukAlrNpJg1SzDH4QW/URgNYgZTkjA4UkwJUgGXng+6DX1zLfmoymdXo17xh5zmRJ6Q42BWCfc2oJfdAr+Yv+AP9Cb7OJ3H/2JG1HNGz/84klThPVCc=);strokeColor=#196283;spacingTop=-1;spacingBottom=-1;spacingLeft=-1;spacingRight=-1;points=[];labelBackgroundColor=none;rounded=0;html=1;whiteSpace=wrap;" vertex="1" parent="1">
            <mxGeometry x="2373" y="367" width="107" height="127" as="geometry" />
          </mxCell>
        </UserObject>
        <UserObject label="&lt;div style=&quot;font-size: 1px&quot;&gt;&lt;p style=&quot;text-align:left;margin-left:0;margin-right:0;margin-top:0px;margin-bottom:0px;text-indent:0;vertical-align:middle;direction:ltr;&quot;&gt;&lt;font style=&quot;font-size:15.52px;font-family:Calibri;color:#000000;direction:ltr;letter-spacing:0px;line-height:120%;opacity:1&quot;&gt;Micro enterprises &lt;/font&gt;&lt;font style=&quot;font-size:15.52px;font-family:Calibri;color:#000000;direction:ltr;letter-spacing:0px;line-height:120%;opacity:1&quot;&gt;Join Business Incubation Facility (BIF)&lt;br/&gt;&lt;/font&gt;&lt;/p&gt;&lt;/div&gt;" Function="Business Incubation Facility (BIF)" tags="Flowchart" id="rB1mxTAFyo9l-1NCUvBi-73">
          <mxCell style="verticalAlign=middle;align=left;overflow=width;vsdxID=1036;fillColor=#d5b546;gradientColor=none;shape=stencil(nZBLDoAgDERP0z3SIyjew0SURgSD+Lu9kMZoXLhwN9O+tukAlrNpJg1SzDH4QW/URgNYgZTkjA4UkwJUgGXng+6DX1zLfmoymdXo17xh5zmRJ6Q42BWCfc2oJfdAr+Yv+AP9Cb7OJ3H/2JG1HNGz/84klThPVCc=);strokeColor=#b6ab84;spacingTop=-1;spacingBottom=-1;spacingLeft=-1;spacingRight=-1;points=[[0,0.5,0],[1,0.5,0],[0.5,1,0],[0.5,0,0]];labelBackgroundColor=none;rounded=0;html=1;whiteSpace=wrap;" vertex="1" parent="1">
            <mxGeometry x="1173" y="294" width="101" height="101" as="geometry" />
          </mxCell>
        </UserObject>
        <UserObject label="&lt;div style=&quot;font-size: 1px&quot;&gt;&lt;p style=&quot;text-align:left;margin-left:0;margin-right:0;margin-top:0px;margin-bottom:0px;text-indent:0;vertical-align:middle;direction:ltr;&quot;&gt;&lt;font style=&quot;font-size:14.11px;font-family:Calibri;color:#000000;direction:ltr;letter-spacing:0px;line-height:120%;opacity:1&quot;&gt;1.&lt;/font&gt;&lt;font style=&quot;font-size:14.11px;font-family:Calibri;color:#000000;direction:ltr;letter-spacing:0px;line-height:120%;opacity:1&quot;&gt;The AECF &lt;/font&gt;&lt;font style=&quot;font-size:14.11px;font-family:Calibri;color:#000000;direction:ltr;letter-spacing:0px;line-height:120%;opacity:1&quot;&gt;Academy&lt;/font&gt;&lt;font style=&quot;font-size:14.11px;font-family:Calibri;color:#000000;direction:ltr;letter-spacing:0px;line-height:120%;opacity:1&quot;&gt; delivers the business acumen comprising of five (5) modules&lt;/font&gt;&lt;font style=&quot;font-size:14.11px;font-family:Calibri;color:#000000;direction:ltr;letter-spacing:0px;line-height:120%;opacity:1&quot;&gt; &lt;/font&gt;&lt;font style=&quot;font-size:14.11px;font-family:Calibri;color:#000000;direction:ltr;letter-spacing:0px;line-height:120%;opacity:1&quot;&gt;&lt;i&gt;business opportunities in non-traditional value chains, business skills, financial management, trade, negotiation, power analysis, bargaining, group management and governance&lt;br/&gt;&lt;/i&gt;&lt;/font&gt;&lt;font style=&quot;font-size:14.11px;font-family:Calibri;color:#000000;direction:ltr;letter-spacing:0px;line-height:120%;opacity:1&quot;&gt;2. &lt;/font&gt;&lt;font style=&quot;font-size:14.11px;font-family:Calibri;color:#000000;direction:ltr;letter-spacing:0px;line-height:120%;opacity:1&quot;&gt;Grant Administrator recruited to recruit and select micro enterprises, deliver financial management and knowledge on financial products, services, and channels, and recommend micro enterprises for grant funding.&lt;br/&gt;&lt;/font&gt;&lt;font style=&quot;font-size:14.11px;font-family:Calibri;color:#000000;direction:ltr;letter-spacing:0px;line-height:120%;opacity:1&quot;&gt;3. &lt;/font&gt;&lt;font style=&quot;font-size:14.11px;font-family:Calibri;color:#000000;direction:ltr;letter-spacing:0px;line-height:120%;opacity:1&quot;&gt;Period of BIF 6 months on rolling basis over 2 years.  &lt;br/&gt;&lt;/font&gt;&lt;/p&gt;&lt;/div&gt;" Function="Business Incubation Facility (BIF) set up" tags="Flowchart" id="rB1mxTAFyo9l-1NCUvBi-74">
          <mxCell style="verticalAlign=middle;align=left;overflow=width;vsdxID=1039;fillColor=#d5b546;gradientColor=none;shape=stencil(nZBLDoAgDERP0z3SIyjew0SURgSD+Lu9kMZoXLhwN9O+tukAlrNpJg1SzDH4QW/URgNYgZTkjA4UkwJUgGXng+6DX1zLfmoymdXo17xh5zmRJ6Q42BWCfc2oJfdAr+Yv+AP9Cb7OJ3H/2JG1HNGz/84klThPVCc=);strokeColor=#b6ab84;spacingTop=-1;spacingBottom=-1;spacingLeft=-1;spacingRight=-1;points=[[1,0.5,0],[0.5,0.5,0],[0.5,0,0]];labelBackgroundColor=none;rounded=0;html=1;whiteSpace=wrap;" vertex="1" parent="1">
            <mxGeometry x="307" y="321" width="200" height="317" as="geometry" />
          </mxCell>
        </UserObject>
        <UserObject label="&lt;div style=&quot;font-size: 1px&quot;&gt;&lt;font style=&quot;font-size:14.11px;font-family:Calibri;color:#000000;direction:ltr;letter-spacing:0px;line-height:120%;opacity:1&quot;&gt;Procurement Process for Pipeline originator (e.g. WRO)&lt;br/&gt;&lt;/font&gt;&lt;/div&gt;" Function="The AECF" StartDate="2023-03-30T00:00:00" Status="Not Started" tags="Flowchart" id="rB1mxTAFyo9l-1NCUvBi-75">
          <mxCell style="vsdxID=1041;fillColor=#58a28b;gradientColor=none;shape=stencil(tVJbDsIgEDwNnyQIaTxArfcgdtsSEZoFbb294NZYG9sPE/92dmZfDEyVodM9MClCRH+GwdSxY+rApDSuAzQxRUxVTJWNR2jRX11NuNdZmaOLv+UOI9XJIpdIcSe4E+KJj6S1xs20+02txlPicNEXJ3FB2pVWL5Lr0QSOPupovPvgrMYWeBrCG6vbaQOiwgDQz9IbJ8hvc385YOXd/nJCCt72NcZacn/OL+1OKfoqqnoA);strokeColor=#7d9990;spacingTop=-1;spacingBottom=-1;spacingLeft=-1;spacingRight=-1;points=[[0.5,1,0],[0.5,0,0],[0.5,0.5,0],[1,0.5,0]];labelBackgroundColor=none;rounded=0;html=1;whiteSpace=wrap;" vertex="1" parent="1">
            <mxGeometry x="97" y="460" width="119" height="89" as="geometry" />
          </mxCell>
        </UserObject>
        <UserObject label="&lt;div style=&quot;font-size: 1px&quot;&gt;&lt;font style=&quot;font-size:14.11px;font-family:Calibri;color:#000000;direction:ltr;letter-spacing:0px;line-height:120%;opacity:1&quot;&gt;AECF Academy approach (Wholesale TA) – Tailored to blue economy micro-enterprises&lt;br/&gt;&lt;/font&gt;&lt;/div&gt;" Function="The AECF" StartDate="2023-03-30T00:00:00" Status="Not Started" tags="Flowchart" id="rB1mxTAFyo9l-1NCUvBi-76">
          <mxCell style="vsdxID=1042;fillColor=#58a28b;gradientColor=none;shape=stencil(tVJbDsIgEDwNnyQIaTxArfcgdtsSEZoFbb294NZYG9sPE/92dmZfDEyVodM9MClCRH+GwdSxY+rApDSuAzQxRUxVTJWNR2jRX11NuNdZmaOLv+UOI9XJIpdIcSe4E+KJj6S1xs20+02txlPicNEXJ3FB2pVWL5Lr0QSOPupovPvgrMYWeBrCG6vbaQOiwgDQz9IbJ8hvc385YOXd/nJCCt72NcZacn/OL+1OKfoqqnoA);strokeColor=#7d9990;spacingTop=-1;spacingBottom=-1;spacingLeft=-1;spacingRight=-1;points=[[0.5,1,0],[0.5,0,0],[0.5,0.5,0],[1,0.5,0]];labelBackgroundColor=none;rounded=0;html=1;whiteSpace=wrap;" vertex="1" parent="1">
            <mxGeometry x="80" y="672" width="148" height="111" as="geometry" />
          </mxCell>
        </UserObject>
        <UserObject label="" tags="Connector" id="rB1mxTAFyo9l-1NCUvBi-77">
          <mxCell style="vsdxID=1045;edgeStyle=none;startArrow=none;endArrow=block;startSize=5;endSize=5;strokeColor=#c9ab42;spacingTop=0;spacingBottom=0;spacingLeft=0;spacingRight=0;verticalAlign=middle;html=1;labelBackgroundColor=#ffffff;rounded=0;exitX=0.5;exitY=1;exitDx=0;exitDy=0;exitPerimeter=0;entryX=0.5038167938931297;entryY=0;entryDx=0;entryDy=0;entryPerimeter=0;" edge="1" parent="1" source="rB1mxTAFyo9l-1NCUvBi-76" target="rB1mxTAFyo9l-1NCUvBi-49">
            <mxGeometry relative="1" as="geometry">
              <mxPoint x="12" as="offset" />
              <Array as="points" />
            </mxGeometry>
          </mxCell>
        </UserObject>
        <UserObject label="" tags="Connector" id="rB1mxTAFyo9l-1NCUvBi-78">
          <mxCell style="vsdxID=1044;edgeStyle=none;startArrow=none;endArrow=block;startSize=5;endSize=5;strokeColor=#c9ab42;spacingTop=0;spacingBottom=0;spacingLeft=0;spacingRight=0;verticalAlign=middle;html=1;labelBackgroundColor=#ffffff;rounded=0;exitX=0.5042016806722689;exitY=1.0112359550561798;exitDx=0;exitDy=0;exitPerimeter=0;entryX=0;entryY=0.5;entryDx=0;entryDy=0;entryPerimeter=0;" edge="1" parent="1" source="rB1mxTAFyo9l-1NCUvBi-75" target="rB1mxTAFyo9l-1NCUvBi-49">
            <mxGeometry relative="1" as="geometry">
              <mxPoint as="offset" />
              <Array as="points">
                <mxPoint x="157" y="575.4" />
                <mxPoint x="80.38" y="575.4" />
                <mxPoint x="80.38" y="901.32" />
              </Array>
            </mxGeometry>
          </mxCell>
        </UserObject>
        <UserObject label="" tags="Connector" id="rB1mxTAFyo9l-1NCUvBi-79">
          <mxCell style="vsdxID=1043;edgeStyle=none;startArrow=none;endArrow=block;startSize=5;endSize=5;strokeColor=#c9ab42;spacingTop=0;spacingBottom=0;spacingLeft=0;spacingRight=0;verticalAlign=middle;html=1;labelBackgroundColor=#ffffff;rounded=0;exitX=0.4957983193277311;exitY=1;exitDx=0;exitDy=0;exitPerimeter=0;entryX=0.5038167938931297;entryY=0;entryDx=0;entryDy=0;entryPerimeter=0;" edge="1" parent="1" source="rB1mxTAFyo9l-1NCUvBi-48" target="rB1mxTAFyo9l-1NCUvBi-49">
            <mxGeometry relative="1" as="geometry">
              <mxPoint x="-10" as="offset" />
              <Array as="points">
                <mxPoint x="160" y="447.22" />
                <mxPoint x="253.04" y="447.22" />
                <mxPoint x="253.04" y="828.7" />
                <mxPoint x="153.51" y="828.7" />
              </Array>
            </mxGeometry>
          </mxCell>
        </UserObject>
        <UserObject label="" tags="Connector" id="rB1mxTAFyo9l-1NCUvBi-80">
          <mxCell style="vsdxID=1040;edgeStyle=none;startArrow=none;endArrow=block;startSize=5;endSize=5;strokeColor=#c9ab42;spacingTop=0;spacingBottom=0;spacingLeft=0;spacingRight=0;verticalAlign=middle;html=1;labelBackgroundColor=#ffffff;rounded=0;exitX=0.5052631578947369;exitY=1;exitDx=0;exitDy=0;exitPerimeter=0;entryX=0.505;entryY=0;entryDx=0;entryDy=0;entryPerimeter=0;" edge="1" parent="1" source="rB1mxTAFyo9l-1NCUvBi-51" target="rB1mxTAFyo9l-1NCUvBi-74">
            <mxGeometry relative="1" as="geometry">
              <mxPoint x="-13" y="-1" as="offset" />
              <Array as="points" />
            </mxGeometry>
          </mxCell>
        </UserObject>
        <UserObject label="" tags="Connector" id="rB1mxTAFyo9l-1NCUvBi-81">
          <mxCell style="vsdxID=1038;edgeStyle=none;startArrow=none;endArrow=block;startSize=5;endSize=5;strokeColor=#c9ab42;spacingTop=0;spacingBottom=0;spacingLeft=0;spacingRight=0;verticalAlign=middle;html=1;labelBackgroundColor=#ffffff;rounded=0;exitX=0.504950495049505;exitY=1.00990099009901;exitDx=0;exitDy=0;exitPerimeter=0;entryX=0.504950495049505;entryY=0;entryDx=0;entryDy=0;entryPerimeter=0;" edge="1" parent="1" source="rB1mxTAFyo9l-1NCUvBi-73" target="rB1mxTAFyo9l-1NCUvBi-53">
            <mxGeometry relative="1" as="geometry">
              <mxPoint x="12" y="-1" as="offset" />
              <Array as="points" />
            </mxGeometry>
          </mxCell>
        </UserObject>
        <UserObject label="&lt;div style=&quot;font-size: 1px&quot;&gt;&lt;/div&gt;" tags="Connector" id="rB1mxTAFyo9l-1NCUvBi-82">
          <mxCell style="vsdxID=1037;edgeStyle=none;startArrow=none;endArrow=block;startSize=5;endSize=5;strokeColor=#c9ab42;spacingTop=0;spacingBottom=0;spacingLeft=0;spacingRight=0;verticalAlign=middle;html=1;labelBackgroundColor=#ffffff;rounded=0;align=center;overflow=width;exitX=1.00990099009901;exitY=0.5;exitDx=0;exitDy=0;exitPerimeter=0;entryX=0.5;entryY=0;entryDx=0;entryDy=0;entryPerimeter=0;jumpStyle=arc;" edge="1" parent="1" source="rB1mxTAFyo9l-1NCUvBi-53" target="rB1mxTAFyo9l-1NCUvBi-63">
            <mxGeometry relative="1" as="geometry">
              <mxPoint y="-1" as="offset" />
              <Array as="points">
                <mxPoint x="1296.17" y="537" />
                <mxPoint x="1313.1" y="537" />
                <mxPoint x="1313.1" y="281.26" />
                <mxPoint x="1422.07" y="281.26" />
              </Array>
            </mxGeometry>
          </mxCell>
        </UserObject>
        <UserObject label="" tags="Connector" id="rB1mxTAFyo9l-1NCUvBi-83">
          <mxCell style="vsdxID=1035;edgeStyle=none;startArrow=none;endArrow=block;startSize=5;endSize=5;strokeColor=#c9ab42;spacingTop=0;spacingBottom=0;spacingLeft=0;spacingRight=0;verticalAlign=middle;html=1;labelBackgroundColor=#ffffff;rounded=0;exitX=0.5327102803738317;exitY=1;exitDx=0;exitDy=0;exitPerimeter=0;entryX=0;entryY=0.5;entryDx=0;entryDy=0;entryPerimeter=0;" edge="1" parent="1" source="rB1mxTAFyo9l-1NCUvBi-72" target="rB1mxTAFyo9l-1NCUvBi-66">
            <mxGeometry relative="1" as="geometry">
              <mxPoint x="-1" as="offset" />
              <Array as="points">
                <mxPoint x="2430" y="1038.66" />
                <mxPoint x="67.44" y="1038.66" />
                <mxPoint x="67.44" y="235.71" />
              </Array>
            </mxGeometry>
          </mxCell>
        </UserObject>
        <UserObject label="" tags="Connector" id="rB1mxTAFyo9l-1NCUvBi-84">
          <mxCell style="vsdxID=1027;edgeStyle=none;startArrow=none;endArrow=block;startSize=5;endSize=5;strokeColor=#c9ab42;spacingTop=0;spacingBottom=0;spacingLeft=0;spacingRight=0;verticalAlign=middle;html=1;labelBackgroundColor=#ffffff;rounded=0;exitX=1.00990099009901;exitY=0.49056603773584906;exitDx=0;exitDy=0;exitPerimeter=0;entryX=0;entryY=0.5079365079365079;entryDx=0;entryDy=0;entryPerimeter=0;" edge="1" parent="1" source="rB1mxTAFyo9l-1NCUvBi-61" target="rB1mxTAFyo9l-1NCUvBi-68">
            <mxGeometry relative="1" as="geometry">
              <mxPoint y="-1" as="offset" />
              <Array as="points">
                <mxPoint x="2174.7" y="253" />
                <mxPoint x="2174.7" y="225.72" />
              </Array>
            </mxGeometry>
          </mxCell>
        </UserObject>
        <UserObject label="" tags="Connector" id="rB1mxTAFyo9l-1NCUvBi-85">
          <mxCell style="vsdxID=1020;edgeStyle=none;startArrow=none;endArrow=block;startSize=5;endSize=5;strokeColor=#c9ab42;spacingTop=0;spacingBottom=0;spacingLeft=0;spacingRight=0;verticalAlign=middle;html=1;labelBackgroundColor=#ffffff;rounded=0;exitX=0.5;exitY=1;exitDx=0;exitDy=0;exitPerimeter=0;entryX=0;entryY=0.5;entryDx=0;entryDy=0;entryPerimeter=0;" edge="1" parent="1" source="rB1mxTAFyo9l-1NCUvBi-67" target="rB1mxTAFyo9l-1NCUvBi-64">
            <mxGeometry relative="1" as="geometry">
              <mxPoint y="-1" as="offset" />
              <Array as="points">
                <mxPoint x="832" y="493.44" />
              </Array>
            </mxGeometry>
          </mxCell>
        </UserObject>
        <UserObject label="" tags="Connector" id="rB1mxTAFyo9l-1NCUvBi-86">
          <mxCell style="vsdxID=1019;edgeStyle=none;startArrow=none;endArrow=block;startSize=5;endSize=5;strokeColor=#c9ab42;spacingTop=0;spacingBottom=0;spacingLeft=0;spacingRight=0;verticalAlign=middle;html=1;labelBackgroundColor=#ffffff;rounded=0;exitX=1;exitY=0.5;exitDx=0;exitDy=0;exitPerimeter=0;entryX=0.504950495049505;entryY=0;entryDx=0;entryDy=0;entryPerimeter=0;jumpStyle=arc;" edge="1" parent="1" source="rB1mxTAFyo9l-1NCUvBi-52" target="rB1mxTAFyo9l-1NCUvBi-73">
            <mxGeometry relative="1" as="geometry">
              <mxPoint x="-1" as="offset" />
              <Array as="points">
                <mxPoint x="827.57" y="345" />
                <mxPoint x="1160.7" y="345" />
                <mxPoint x="1160.7" y="281.5" />
                <mxPoint x="1224.2" y="281.5" />
              </Array>
            </mxGeometry>
          </mxCell>
        </UserObject>
        <UserObject label="" tags="Connector" id="rB1mxTAFyo9l-1NCUvBi-87">
          <mxCell style="vsdxID=1007;edgeStyle=none;startArrow=none;endArrow=block;startSize=5;endSize=5;strokeColor=#c9ab42;spacingTop=0;spacingBottom=0;spacingLeft=0;spacingRight=0;verticalAlign=middle;html=1;labelBackgroundColor=#ffffff;rounded=0;exitX=0.5;exitY=1;exitDx=0;exitDy=0;exitPerimeter=0;entryX=0.4957983193277311;entryY=0;entryDx=0;entryDy=0;entryPerimeter=0;" edge="1" parent="1" source="rB1mxTAFyo9l-1NCUvBi-66" target="rB1mxTAFyo9l-1NCUvBi-48">
            <mxGeometry relative="1" as="geometry">
              <mxPoint x="12" as="offset" />
              <Array as="points" />
            </mxGeometry>
          </mxCell>
        </UserObject>
        <UserObject label="" tags="Connector" id="rB1mxTAFyo9l-1NCUvBi-88">
          <mxCell style="vsdxID=1005;edgeStyle=none;startArrow=none;endArrow=block;startSize=5;endSize=5;strokeColor=#c9ab42;spacingTop=0;spacingBottom=0;spacingLeft=0;spacingRight=0;verticalAlign=middle;html=1;labelBackgroundColor=#ffffff;rounded=0;exitX=1;exitY=0.5;exitDx=0;exitDy=0;exitPerimeter=0;entryX=0;entryY=0.4975369458128079;entryDx=0;entryDy=0;entryPerimeter=0;" edge="1" parent="1" source="rB1mxTAFyo9l-1NCUvBi-63" target="rB1mxTAFyo9l-1NCUvBi-62">
            <mxGeometry relative="1" as="geometry">
              <mxPoint as="offset" />
              <Array as="points">
                <mxPoint x="1494.7" y="345" />
                <mxPoint x="1494.7" y="430.39" />
              </Array>
            </mxGeometry>
          </mxCell>
        </UserObject>
        <UserObject label="" tags="Connector" id="rB1mxTAFyo9l-1NCUvBi-89">
          <mxCell style="vsdxID=1003;edgeStyle=none;startArrow=none;endArrow=block;startSize=5;endSize=5;strokeColor=#c9ab42;spacingTop=0;spacingBottom=0;spacingLeft=0;spacingRight=0;verticalAlign=middle;html=1;labelBackgroundColor=#ffffff;rounded=0;exitX=1;exitY=0.5045045045045045;exitDx=0;exitDy=0;exitPerimeter=0;entryX=0;entryY=0.5;entryDx=0;entryDy=0;entryPerimeter=0;jumpStyle=arc;" edge="1" parent="1" source="rB1mxTAFyo9l-1NCUvBi-76" target="rB1mxTAFyo9l-1NCUvBi-64">
            <mxGeometry relative="1" as="geometry">
              <mxPoint as="offset" />
              <Array as="points">
                <mxPoint x="249.17" y="728" />
                <mxPoint x="274.57" y="728" />
                <mxPoint x="949.65" y="728" />
                <mxPoint x="949.65" y="494.16" />
              </Array>
            </mxGeometry>
          </mxCell>
        </UserObject>
        <UserObject label="" tags="Connector" id="rB1mxTAFyo9l-1NCUvBi-90">
          <mxCell style="vsdxID=180;edgeStyle=none;startArrow=none;endArrow=block;startSize=5;endSize=5;strokeColor=#c9ab42;spacingTop=0;spacingBottom=0;spacingLeft=0;spacingRight=0;verticalAlign=middle;html=1;labelBackgroundColor=#ffffff;rounded=0;exitX=1.0083333333333333;exitY=0.4975369458128079;exitDx=0;exitDy=0;exitPerimeter=0;entryX=0;entryY=0.5037593984962406;entryDx=0;entryDy=0;entryPerimeter=0;" edge="1" parent="1" source="rB1mxTAFyo9l-1NCUvBi-54" target="rB1mxTAFyo9l-1NCUvBi-56">
            <mxGeometry relative="1" as="geometry">
              <mxPoint x="-1" as="offset" />
              <Array as="points" />
            </mxGeometry>
          </mxCell>
        </UserObject>
        <UserObject label="" tags="Connector" id="rB1mxTAFyo9l-1NCUvBi-91">
          <mxCell style="vsdxID=179;edgeStyle=none;startArrow=none;endArrow=block;startSize=5;endSize=5;strokeColor=#c9ab42;spacingTop=0;spacingBottom=0;spacingLeft=0;spacingRight=0;verticalAlign=middle;html=1;labelBackgroundColor=#ffffff;rounded=0;exitX=1.0083333333333333;exitY=0.504950495049505;exitDx=0;exitDy=0;exitPerimeter=0;entryX=0;entryY=0.5037593984962406;entryDx=0;entryDy=0;entryPerimeter=0;" edge="1" parent="1" source="rB1mxTAFyo9l-1NCUvBi-55" target="rB1mxTAFyo9l-1NCUvBi-56">
            <mxGeometry relative="1" as="geometry">
              <mxPoint y="-1" as="offset" />
              <Array as="points">
                <mxPoint x="1863.1" y="643" />
                <mxPoint x="1863.1" y="429.95" />
              </Array>
            </mxGeometry>
          </mxCell>
        </UserObject>
        <UserObject label="" tags="Connector" id="rB1mxTAFyo9l-1NCUvBi-92">
          <mxCell style="vsdxID=176;edgeStyle=none;startArrow=none;endArrow=block;startSize=5;endSize=5;strokeColor=#c9ab42;spacingTop=0;spacingBottom=0;spacingLeft=0;spacingRight=0;verticalAlign=middle;html=1;labelBackgroundColor=#ffffff;rounded=0;exitX=1.0083333333333333;exitY=0.4975369458128079;exitDx=0;exitDy=0;exitPerimeter=0;entryX=0;entryY=0.4975369458128079;entryDx=0;entryDy=0;entryPerimeter=0;" edge="1" parent="1" source="rB1mxTAFyo9l-1NCUvBi-62" target="rB1mxTAFyo9l-1NCUvBi-54">
            <mxGeometry relative="1" as="geometry">
              <mxPoint as="offset" />
              <Array as="points" />
            </mxGeometry>
          </mxCell>
        </UserObject>
        <UserObject label="&lt;div style=&quot;font-size: 1px&quot;&gt;&lt;font style=&quot;font-size:11.29px;font-family:Calibri;color:#6c5c23;direction:ltr;letter-spacing:0px;line-height:120%;opacity:1&quot;&gt;Yes&lt;br/&gt;&lt;/font&gt;&lt;/div&gt;" tags="Connector" id="rB1mxTAFyo9l-1NCUvBi-93">
          <mxCell style="vsdxID=171;edgeStyle=none;startArrow=none;endArrow=block;startSize=5;endSize=5;strokeColor=#c9ab42;spacingTop=0;spacingBottom=0;spacingLeft=0;spacingRight=0;verticalAlign=middle;html=1;labelBackgroundColor=#ffffff;rounded=0;align=center;overflow=width;exitX=0.504950495049505;exitY=1;exitDx=0;exitDy=0;exitPerimeter=0;entryX=0.5;entryY=0;entryDx=0;entryDy=0;entryPerimeter=0;" edge="1" parent="1" source="rB1mxTAFyo9l-1NCUvBi-59" target="rB1mxTAFyo9l-1NCUvBi-57">
            <mxGeometry relative="1" as="geometry">
              <mxPoint as="offset" />
              <Array as="points">
                <mxPoint x="2111" y="522.23" />
                <mxPoint x="1949.08" y="522.23" />
              </Array>
            </mxGeometry>
          </mxCell>
        </UserObject>
        <UserObject label="&lt;div style=&quot;font-size: 1px&quot;&gt;&lt;font style=&quot;font-size:11.29px;font-family:Calibri;color:#6c5c23;direction:ltr;letter-spacing:0px;line-height:120%;opacity:1&quot;&gt;No&lt;br/&gt;&lt;/font&gt;&lt;/div&gt;" tags="Connector" id="rB1mxTAFyo9l-1NCUvBi-94">
          <mxCell style="vsdxID=170;edgeStyle=none;startArrow=none;endArrow=block;startSize=5;endSize=5;strokeColor=#c9ab42;spacingTop=0;spacingBottom=0;spacingLeft=0;spacingRight=0;verticalAlign=middle;html=1;labelBackgroundColor=#ffffff;rounded=0;align=center;overflow=width;exitX=0.504950495049505;exitY=0;exitDx=0;exitDy=0;exitPerimeter=0;entryX=0.5;entryY=1.00990099009901;entryDx=0;entryDy=0;entryPerimeter=0;" edge="1" parent="1" source="rB1mxTAFyo9l-1NCUvBi-59" target="rB1mxTAFyo9l-1NCUvBi-58">
            <mxGeometry relative="1" as="geometry">
              <mxPoint x="-1" as="offset" />
              <Array as="points">
                <mxPoint x="2111" y="329.29" />
                <mxPoint x="1949.08" y="329.29" />
              </Array>
            </mxGeometry>
          </mxCell>
        </UserObject>
        <UserObject label="&lt;div style=&quot;font-size: 1px&quot;&gt;&lt;font style=&quot;font-size:14.11px;font-family:Calibri;color:#3c0301;direction:ltr;letter-spacing:0px;line-height:120%;opacity:1&quot;&gt;Return Grantee to BIF&lt;br/&gt;&lt;/font&gt;&lt;/div&gt;" tags="Connector" id="rB1mxTAFyo9l-1NCUvBi-95">
          <mxCell style="vsdxID=163;edgeStyle=none;startArrow=none;endArrow=block;startSize=5;endSize=5;strokeColor=#6f0503;spacingTop=0;spacingBottom=0;spacingLeft=0;spacingRight=0;verticalAlign=middle;html=1;labelBackgroundColor=#ffffff;rounded=0;align=center;overflow=width;exitX=0.5;exitY=1;exitDx=0;exitDy=0;exitPerimeter=0;entryX=1.00990099009901;entryY=0.504950495049505;entryDx=0;entryDy=0;entryPerimeter=0;" edge="1" parent="1" source="rB1mxTAFyo9l-1NCUvBi-57" target="rB1mxTAFyo9l-1NCUvBi-73">
            <mxGeometry relative="1" as="geometry">
              <mxPoint as="offset" />
              <Array as="points">
                <mxPoint x="1949" y="776.4" />
                <mxPoint x="1300.28" y="776.4" />
                <mxPoint x="1300.28" y="344.67" />
              </Array>
            </mxGeometry>
          </mxCell>
        </UserObject>
        <UserObject label="&lt;div style=&quot;font-size: 1px&quot;&gt;&lt;font style=&quot;font-size:11.29px;font-family:Calibri;color:#6c5c23;direction:ltr;letter-spacing:0px;line-height:120%;opacity:1&quot;&gt;Contract&lt;br/&gt;&lt;/font&gt;&lt;/div&gt;" tags="Connector" id="rB1mxTAFyo9l-1NCUvBi-96">
          <mxCell style="vsdxID=56;edgeStyle=none;startArrow=none;endArrow=block;startSize=5;endSize=5;strokeColor=#c9ab42;spacingTop=0;spacingBottom=0;spacingLeft=0;spacingRight=0;verticalAlign=middle;html=1;labelBackgroundColor=#ffffff;rounded=0;align=center;overflow=width;exitX=1.0076335877862594;exitY=0.5;exitDx=0;exitDy=0;exitPerimeter=0;entryX=0;entryY=0.5;entryDx=0;entryDy=0;entryPerimeter=0;" edge="1" parent="1" source="rB1mxTAFyo9l-1NCUvBi-49" target="rB1mxTAFyo9l-1NCUvBi-51">
            <mxGeometry relative="1" as="geometry">
              <mxPoint y="-67" as="offset" />
              <Array as="points">
                <mxPoint x="279.36" y="901" />
                <mxPoint x="279.36" y="232.18" />
              </Array>
            </mxGeometry>
          </mxCell>
        </UserObject>
        <UserObject label="" tags="Connector" id="rB1mxTAFyo9l-1NCUvBi-97">
          <mxCell style="vsdxID=58;edgeStyle=none;startArrow=none;endArrow=block;startSize=5;endSize=5;strokeColor=#c9ab42;spacingTop=0;spacingBottom=0;spacingLeft=0;spacingRight=0;verticalAlign=middle;html=1;labelBackgroundColor=#ffffff;rounded=0;exitX=1.0052631578947369;exitY=0.5;exitDx=0;exitDy=0;exitPerimeter=0;entryX=0;entryY=0.5;entryDx=0;entryDy=0;entryPerimeter=0;" edge="1" parent="1" source="rB1mxTAFyo9l-1NCUvBi-51" target="rB1mxTAFyo9l-1NCUvBi-52">
            <mxGeometry relative="1" as="geometry">
              <mxPoint as="offset" />
              <Array as="points">
                <mxPoint x="528.4" y="232" />
                <mxPoint x="528.4" y="344.56" />
              </Array>
            </mxGeometry>
          </mxCell>
        </UserObject>
        <UserObject label="&lt;div style=&quot;font-size: 1px&quot;&gt;&lt;font style=&quot;font-size:12.7px;font-family:Calibri;color:#6c5c23;direction:ltr;letter-spacing:0px;line-height:120%;opacity:1&quot;&gt;Local Coaches offer Training&lt;br/&gt;&lt;/font&gt;&lt;/div&gt;" tags="Connector" id="rB1mxTAFyo9l-1NCUvBi-98">
          <mxCell style="vsdxID=64;edgeStyle=none;startArrow=none;endArrow=block;startSize=5;endSize=5;strokeColor=#c9ab42;spacingTop=0;spacingBottom=0;spacingLeft=0;spacingRight=0;verticalAlign=middle;html=1;labelBackgroundColor=#ffffff;rounded=0;align=center;overflow=width;exitX=0.5038167938931297;exitY=1;exitDx=0;exitDy=0;exitPerimeter=0;entryX=0.504950495049505;entryY=1;entryDx=0;entryDy=0;entryPerimeter=0;" edge="1" parent="1" source="rB1mxTAFyo9l-1NCUvBi-49" target="rB1mxTAFyo9l-1NCUvBi-53">
            <mxGeometry relative="1" as="geometry">
              <mxPoint x="-1" as="offset" />
              <Array as="points">
                <mxPoint x="154" y="985.4" />
                <mxPoint x="1224.08" y="985.4" />
              </Array>
            </mxGeometry>
          </mxCell>
        </UserObject>
        <UserObject label="" tags="Connector" id="rB1mxTAFyo9l-1NCUvBi-99">
          <mxCell style="vsdxID=67;edgeStyle=none;startArrow=none;endArrow=block;startSize=5;endSize=5;strokeColor=#c9ab42;spacingTop=0;spacingBottom=0;spacingLeft=0;spacingRight=0;verticalAlign=middle;html=1;labelBackgroundColor=#ffffff;rounded=0;exitX=0.5;exitY=1;exitDx=0;exitDy=0;exitPerimeter=0;entryX=0;entryY=0.504950495049505;entryDx=0;entryDy=0;entryPerimeter=0;jumpStyle=arc;" edge="1" parent="1" source="rB1mxTAFyo9l-1NCUvBi-64" target="rB1mxTAFyo9l-1NCUvBi-55">
            <mxGeometry relative="1" as="geometry">
              <mxPoint x="-1" as="offset" />
              <Array as="points">
                <mxPoint x="1042" y="643.54" />
                <mxPoint x="1219.37" y="643.54" />
                <mxPoint x="1295.57" y="643.54" />
              </Array>
            </mxGeometry>
          </mxCell>
        </UserObject>
        <UserObject label="" tags="Connector" id="rB1mxTAFyo9l-1NCUvBi-100">
          <mxCell style="vsdxID=189;edgeStyle=none;startArrow=none;endArrow=block;startSize=5;endSize=5;strokeColor=#c9ab42;spacingTop=0;spacingBottom=0;spacingLeft=0;spacingRight=0;verticalAlign=middle;html=1;labelBackgroundColor=#ffffff;rounded=0;exitX=0.5;exitY=1;exitDx=0;exitDy=0;exitPerimeter=0;entryX=0.5;entryY=0;entryDx=0;entryDy=0;entryPerimeter=0;" edge="1" parent="1" source="rB1mxTAFyo9l-1NCUvBi-52" target="rB1mxTAFyo9l-1NCUvBi-65">
            <mxGeometry relative="1" as="geometry">
              <mxPoint x="12" as="offset" />
              <Array as="points" />
            </mxGeometry>
          </mxCell>
        </UserObject>
        <UserObject label="" tags="Connector" id="rB1mxTAFyo9l-1NCUvBi-101">
          <mxCell style="vsdxID=173;edgeStyle=none;startArrow=none;endArrow=block;startSize=5;endSize=5;strokeColor=#c9ab42;spacingTop=0;spacingBottom=0;spacingLeft=0;spacingRight=0;verticalAlign=middle;html=1;labelBackgroundColor=#ffffff;rounded=0;exitX=1;exitY=0.504950495049505;exitDx=0;exitDy=0;exitPerimeter=0;entryX=0;entryY=0.49056603773584906;entryDx=0;entryDy=0;entryPerimeter=0;" edge="1" parent="1" source="rB1mxTAFyo9l-1NCUvBi-58" target="rB1mxTAFyo9l-1NCUvBi-61">
            <mxGeometry relative="1" as="geometry">
              <mxPoint as="offset" />
              <Array as="points" />
            </mxGeometry>
          </mxCell>
        </UserObject>
        <UserObject label="" tags="Connector" id="rB1mxTAFyo9l-1NCUvBi-102">
          <mxCell style="vsdxID=169;edgeStyle=none;startArrow=none;endArrow=block;startSize=5;endSize=5;strokeColor=#c9ab42;spacingTop=0;spacingBottom=0;spacingLeft=0;spacingRight=0;verticalAlign=middle;html=1;labelBackgroundColor=#ffffff;rounded=0;exitX=1;exitY=0.5037593984962406;exitDx=0;exitDy=0;exitPerimeter=0;entryX=0;entryY=0.5;entryDx=0;entryDy=0;entryPerimeter=0;" edge="1" parent="1" source="rB1mxTAFyo9l-1NCUvBi-56" target="rB1mxTAFyo9l-1NCUvBi-59">
            <mxGeometry relative="1" as="geometry">
              <mxPoint as="offset" />
              <Array as="points" />
            </mxGeometry>
          </mxCell>
        </UserObject>
        <UserObject label="" tags="Flowchart Connector Data_Graphic Container" id="rB1mxTAFyo9l-1NCUvBi-103">
          <mxCell vertex="1" visible="0" parent="1">
            <mxGeometry as="geometry" />
          </mxCell>
        </UserObject>
      </root>
    </mxGraphModel>
  </diagram>
</mxfile>
